<?xml version='1.0' encoding='utf-8'?>
<svg xmlns="http://www.w3.org/2000/svg" width="1920" height="1080" viewBox="0 0 1920 1080" data-theme="light">
  <style>
        @font-face {
            font-family: 'Inter';
            src: url('assets/fonts/Inter-Regular.ttf') format('truetype');
            font-weight: 400;
            font-style: normal;
            font-display: swap;
        }
        @font-face {
            font-family: 'Inter';
            src: url('assets/fonts/Inter-Bold.ttf') format('truetype');
            font-weight: 600;
            font-style: normal;
            font-display: swap;
        }
        @font-face {
            font-family: 'Inter';
            src: url('assets/fonts/Inter-Bold.ttf') format('truetype');
            font-weight: 800;
            font-style: normal;
            font-display: swap;
        }
        
:root {
    --background: #f8fafc;
    --panel: #ffffff;
    --primary-text: #0f172a;
    --muted-text: #64748b;
    --inverse-text: #ffffff;
    --border: #e2e8f0;
    --shadow-color: #000000;
    --icon-pad-bg: #1e293b;
    --art-glow: #0891b2;
    --art-glow-opacity: 0.10;
    --art-sheen: #ffffff;
    --art-sheen-opacity: 0.34;
    --art-shadow: #0f172a;
    --art-shadow-opacity: 0.14;
    --art-muted-line: #94a3b8;
    --art-panel-tint: #f1f5f9;
    --font-family: 'Inter', 'Segoe UI', 'Kalam', Roboto, Helvetica, Arial, sans-serif;
    --radius-xl: 16px;
    --font-family-headline: 'Inter', 'Segoe UI', 'Kalam', Roboto, Helvetica, Arial, sans-serif;
    --font-family-body: 'Inter', 'Segoe UI', 'Kalam', Roboto, Helvetica, Arial, sans-serif;
    --font-heading: 'Inter', 'Segoe UI', 'Kalam', Roboto, Helvetica, Arial, sans-serif;
    --font-body: 'Inter', 'Segoe UI', 'Kalam', Roboto, Helvetica, Arial, sans-serif;
    --font-size-h1: 56px;
    --font-size-h2: 40px;
    --font-size-h3: 28px;
    --font-size-body: 24px;
    --font-size-caption: 18px;
    --secondary-text: var(--muted-text);
    --panel-border: var(--border);
    --font-weight-normal: 400;
    --font-weight-medium: 500;
    --font-weight-semibold: 600;
    --font-weight-bold: 700;
    --spacing-gutter-pct: 0.07;
    --spacing-top-pct: 0.15;
    --spacing-bottom-pct: 0.07;
    --spacing-title-y-pct: 0.055;
    --accent-1: #0891b2;
    --accent-2: #0284c7;
    --accent-3: #2563eb;
    --accent-4: #4f46e5;
    --accent-5: #7c3aed;
    --accent-6: #0d9488;
}
:root[data-theme="dark"] {
    --background: #0f172a;
    --panel: #1e293b;
    --primary-text: #f1f5f9;
    --muted-text: #94a3b8;
    --inverse-text: #0f172a;
    --border: #334155;
    --shadow-color: #000000;
    --icon-pad-bg: #1e293b;
    --art-glow: #7dd3fc;
    --art-glow-opacity: 0.18;
    --art-sheen: #ffffff;
    --art-sheen-opacity: 0.18;
    --art-shadow: #000000;
    --art-shadow-opacity: 0.28;
    --art-muted-line: #64748b;
    --art-panel-tint: #1e293b;
    --accent-1: #22d3ee;
    --accent-2: #38bdf8;
    --accent-3: #60a5fa;
    --accent-4: #818cf8;
    --accent-5: #a78bfa;
    --accent-6: #2dd4bf;
}
:root[data-theme="light"] {
    --background: #f8fafc;
    --panel: #ffffff;
    --primary-text: #0f172a;
    --muted-text: #64748b;
    --inverse-text: #ffffff;
    --border: #e2e8f0;
    --shadow-color: #000000;
    --icon-pad-bg: #1e293b;
    --art-glow: #0891b2;
    --art-glow-opacity: 0.10;
    --art-sheen: #ffffff;
    --art-sheen-opacity: 0.34;
    --art-shadow: #0f172a;
    --art-shadow-opacity: 0.14;
    --art-muted-line: #94a3b8;
    --art-panel-tint: #f1f5f9;
    --accent-1: #0891b2;
    --accent-2: #0284c7;
    --accent-3: #2563eb;
    --accent-4: #4f46e5;
    --accent-5: #7c3aed;
    --accent-6: #0d9488;
}</style>
  <rect x="0" y="0" width="1.92E+3" height="1.08E+3" fill="#252a34" stroke="none" id="programmatic_background"/>
  <line id="HEADER_DECOR" x1="960.0" x2="1080.0" y1="70.0" y2="70.0" stroke="var(--accent-1)" stroke-width="6" stroke-linecap="round"/>
  <defs>
    <pattern id="svg967447c5-napkin-hatch" patternUnits="userSpaceOnUse" width="12" height="12">
      <path d="M -3 12 L 12 -3 M 0 15 L 15 0" fill="none" stroke="var(--primary-text)" stroke-width="1" stroke-opacity="0.05"/>
    </pattern>
    <radialGradient id="svg967447c5-universal-edge-vignette" cx="50%" cy="50%" r="72%">
      <stop offset="0%" stop-color="var(--background)" stop-opacity="0"/>
      <stop offset="72%" stop-color="var(--background)" stop-opacity="0.12"/>
      <stop offset="100%" stop-color="var(--primary-text)" stop-opacity="0.08"/>
    </radialGradient>
    <linearGradient id="svg967447c5-universal-surface-sheen" x1="0%" y1="0%" x2="100%" y2="100%">
      <stop offset="0%" stop-color="var(--art-sheen)" stop-opacity="var(--art-sheen-opacity)"/>
      <stop offset="46%" stop-color="var(--art-sheen)" stop-opacity="0.035"/>
      <stop offset="100%" stop-color="var(--art-panel-tint)" stop-opacity="0.14"/>
    </linearGradient>
    <radialGradient id="svg967447c5-universal-icon-aura" cx="50%" cy="42%" r="64%">
      <stop offset="0%" stop-color="var(--art-glow)" stop-opacity="var(--art-glow-opacity)"/>
      <stop offset="100%" stop-color="var(--background)" stop-opacity="0"/>
    </radialGradient>
    <radialGradient id="svg967447c5-satellite-map-art-glow" cx="50%" cy="52%" r="68%">
      <stop offset="0%" stop-color="var(--inverse-text)" stop-opacity="0.14"/>
      <stop offset="100%" stop-color="var(--background)" stop-opacity="0"/>
    </radialGradient>
    <linearGradient id="svg967447c5-satellite-map-art-sheen" x1="16%" y1="0%" x2="86%" y2="100%">
      <stop offset="0%" stop-color="var(--inverse-text)" stop-opacity="0.22"/>
      <stop offset="52%" stop-color="var(--inverse-text)" stop-opacity="0.035"/>
      <stop offset="100%" stop-color="var(--background)" stop-opacity="0.14"/>
    </linearGradient>
    <filter id="svg967447c5-text-glow" x="-20%" y="-20%" width="140%" height="140%">
      <feDropShadow dx="0" dy="0" stdDeviation="2" flood-color="#000000" flood-opacity="0.4"/>
    </filter>
    <filter id="svg967447c5-shadow" x="-30%" y="-30%" width="160%" height="160%">
      <feDropShadow dx="0" dy="2" stdDeviation="3" flood-color="#000000" flood-opacity="0.08"/>
      <feDropShadow dx="0" dy="6" stdDeviation="10" flood-color="#000000" flood-opacity="0.12"/>
    </filter>
    <marker id="svg967447c5-arrowhead" markerWidth="10" markerHeight="7" refX="9" refY="3.5" orient="auto" markerUnits="strokeWidth">
      <polygon points="0 0, 10 3.5, 0 7" fill="var(--muted-text)" opacity="0.6"/>
    </marker>
  </defs>
  <rect width="100%" height="100%" fill="var(--background)" id="CANVAS_BG"/>
  <rect width="100%" height="100%" fill="url(#svg967447c5-napkin-hatch)"/>
  <ellipse id="SATELLITE-MAP_ART_GLOW" cx="960" cy="600" rx="650" ry="340" fill="url(#svg967447c5-satellite-map-art-glow)" opacity="0.84"/>
  <rect id="UNIVERSAL_EDGE_VIGNETTE" width="100%" height="100%" fill="url(#svg967447c5-universal-edge-vignette)" opacity="0.62"/>
  <text id="TITLE" x="960.0" y="59" font-size="42" font-weight="800" fill="#0f172a" style="font-size: 60px; font-family: Inter, Segoe UI, Kalam, Roboto, Helvetica, Arial, sans-serif; font-weight: 700; letter-spacing:-1.2px;" text-anchor="middle" data-final-font-size="60">
    <tspan x="960.0" dy="68.00px">Autonomy Thresholds</tspan>
  </text>
  <rect id="TITLE_FRAME" x="140" y="20" width="1640" height="60" fill="none"/>
  <!-- Square layout - 4 nodes, all with text below -->
  <g id="DIAGRAM_MAIN">
    <!-- Connecting lines forming square and to center -->
    <path d="M 560 260 L 1360 260" stroke="var(--muted-text)" stroke-width="1.5" stroke-dasharray="6 4" opacity="0.5"/>
    <path d="M 960 480 L 560 260" stroke="var(--muted-text)" stroke-width="1.5" stroke-dasharray="6 4" opacity="0.5"/>
    <path d="M 1360 260 L 1360 700" stroke="var(--muted-text)" stroke-width="1.5" stroke-dasharray="6 4" opacity="0.5"/>
    <path d="M 960 480 L 1360 260" stroke="var(--muted-text)" stroke-width="1.5" stroke-dasharray="6 4" opacity="0.5"/>
    <path d="M 1360 700 L 560 700" stroke="var(--muted-text)" stroke-width="1.5" stroke-dasharray="6 4" opacity="0.5"/>
    <path d="M 960 480 L 1360 700" stroke="var(--muted-text)" stroke-width="1.5" stroke-dasharray="6 4" opacity="0.5"/>
    <path d="M 560 700 L 560 260" stroke="var(--muted-text)" stroke-width="1.5" stroke-dasharray="6 4" opacity="0.5"/>
    <path d="M 960 480 L 560 700" stroke="var(--muted-text)" stroke-width="1.5" stroke-dasharray="6 4" opacity="0.5"/>
    <!-- ITEM 1: Top left -->
    <g transform="translate(560, 260)">
      <circle id="ITEM_1_NODE" r="45" fill="var(--icon-pad-bg)" stroke="var(--accent-1)" stroke-width="3"/>
      <circle r="53" fill="none" stroke="var(--accent-1)" stroke-width="3" stroke-dasharray="6 4"/>
      <g id="ITEM_1_ICON" transform="translate(-30, -30)" data-icon-size="60" stroke-dasharray="6 4">
        <g transform="translate(-8.074576271186443,-8.074576271186443) scale(3.1728813559322036)" vector-effect="non-scaling-stroke" stroke-width="2.43" stroke-linecap="round" stroke-linejoin="round" stroke-opacity="1.0">
          <path d="m2 2 20 20" vector-effect="non-scaling-stroke" fill="none" stroke="var(--accent-1)"/>
          <path d="M8.35 2.69A10 10 0 0 1 21.3 15.65" vector-effect="non-scaling-stroke" fill="none" stroke="var(--accent-1)"/>
          <path d="M19.08 19.08A10 10 0 1 1 4.92 4.92" vector-effect="non-scaling-stroke" fill="none" stroke="var(--accent-1)"/>
        </g>
      </g>
      <rect id="ITEM_1_TEXT_BG" x="-208" y="36" width="416" height="202" rx="22" fill="var(--panel)" fill-opacity="0.94" stroke="var(--accent-1)" stroke-width="2"/>
      <text id="ITEM_1_HEAD" x="0.0" y="50.0" text-anchor="middle" font-weight="bold" font-size="19" fill="var(--primary-text)" style="font-size: 30px; font-family: Inter, Segoe UI, Kalam, Roboto, Helvetica, Arial, sans-serif; font-weight: 700; letter-spacing:-0.4px;" data-bg-id="ITEM_1_TEXT_BG" dominant-baseline="text-before-edge" fill-opacity="1.0" data-final-font-size="30">
        <tspan x="0.0" dy="33.25px">Text Generation</tspan>
      </text>
      <rect id="ITEM_1_HEAD_FRAME" x="-100" y="50" width="200" height="50" fill="none"/>
      <text id="ITEM_1_BODY" x="0.0" y="100.0" text-anchor="middle" font-size="15" fill="var(--primary-text)" style="font-size: 26px; font-family: Inter, Segoe UI, Kalam, Roboto, Helvetica, Arial, sans-serif; font-weight: 400;" data-bg-id="ITEM_1_TEXT_BG" dominant-baseline="text-before-edge" data-final-font-size="26">
        <tspan x="0.0" dy="32.84px">Models respond to prompts</tspan>
        <tspan x="0.0" dy="29.90px">without independent action</tspan>
      </text>
      <rect id="ITEM_1_BODY_FRAME" x="-190" y="100" width="380" height="120" fill="none"/>
    </g>
    <!-- ITEM 2: Top right -->
    <g transform="translate(1360, 260)">
      <circle id="ITEM_2_NODE" r="45" fill="var(--icon-pad-bg)" stroke="var(--accent-2)" stroke-width="3"/>
      <circle r="53" fill="none" stroke="var(--accent-2)" stroke-width="3" stroke-dasharray="6 4"/>
      <g id="ITEM_2_ICON" transform="translate(-30, -30)" data-icon-size="60" stroke-dasharray="6 4">
        <g transform="translate(-10.114285714285714,-10.114285714285716) scale(2.507142857142857)">
          <path d="M7 7C7 4.23858 9.23858 2 12 2H20C22.7614 2 25 4.23858 25 7V25C25 27.7614 22.7614 30 20 30H12C9.23858 30 7 27.7614 7 25V7Z" fill="#CDC4D6"/>
          <path d="M16.5 2H15.5V6H15C14.4477 6 14 6.44772 14 7V11C14 11.5523 14.4477 12 15 12H15.5V14.5C15.5 14.7761 15.7239 15 16 15C16.2761 15 16.5 14.7761 16.5 14.5V12H17C17.5523 12 18 11.5523 18 11V7C18 6.44772 17.5523 6 17 6H16.5V2Z" fill="#998EA4"/>
        </g>
      </g>
      <rect id="ITEM_2_TEXT_BG" x="-208" y="36" width="416" height="202" rx="22" fill="var(--panel)" fill-opacity="0.94" stroke="var(--accent-2)" stroke-width="2"/>
      <text id="ITEM_2_HEAD" x="0.0" y="50.0" text-anchor="middle" font-weight="bold" font-size="19" fill="var(--primary-text)" style="font-size: 30px; font-family: Inter, Segoe UI, Kalam, Roboto, Helvetica, Arial, sans-serif; font-weight: 700; letter-spacing:-0.4px;" data-bg-id="ITEM_2_TEXT_BG" dominant-baseline="text-before-edge" fill-opacity="1.0" data-final-font-size="30">
        <tspan x="0.0" dy="33.25px">Tool Use</tspan>
      </text>
      <rect id="ITEM_2_HEAD_FRAME" x="-100" y="50" width="200" height="50" fill="none"/>
      <text id="ITEM_2_BODY" x="0.0" y="100.0" text-anchor="middle" font-size="15" fill="var(--primary-text)" style="font-size: 26px; font-family: Inter, Segoe UI, Kalam, Roboto, Helvetica, Arial, sans-serif; font-weight: 400;" data-bg-id="ITEM_2_TEXT_BG" dominant-baseline="text-before-edge" data-final-font-size="26">
        <tspan x="0.0" dy="32.84px">Systems interact with software</tspan>
        <tspan x="0.0" dy="29.90px">and data bases</tspan>
      </text>
      <rect id="ITEM_2_BODY_FRAME" x="-190" y="100" width="380" height="120" fill="none"/>
    </g>
    <!-- ITEM 3: Bottom right -->
    <g transform="translate(1360, 700)">
      <circle id="ITEM_3_NODE" r="45" fill="var(--icon-pad-bg)" stroke="var(--accent-3)" stroke-width="3"/>
      <circle r="53" fill="none" stroke="var(--accent-3)" stroke-width="3" stroke-dasharray="6 4"/>
      <g id="ITEM_3_ICON" transform="translate(-30, -30)" data-icon-size="60" stroke-dasharray="6 4">
        <g transform="translate(-8.860714285714282,-10.114285714285716) scale(2.507142857142857)" vector-effect="non-scaling-stroke" fill="var(--accent-3)" fill-opacity="1.0" stroke="none">
          <path fill="var(--accent-3)" d="M13 30a11 11 0 0 1 0-22a1 1 0 0 1 1 1v9h9a1 1 0 0 1 1 1a11 11 0 0 1-11 11m-1-19.94A9 9 0 1 0 21.94 20H14a2 2 0 0 1-2-2Z" vector-effect="non-scaling-stroke" stroke="none"/>
          <path fill="var(--accent-3)" d="M28 14h-9a2 2 0 0 1-2-2V3a1 1 0 0 1 1-1a11 11 0 0 1 11 11a1 1 0 0 1-1 1m-9-2h7.94A9 9 0 0 0 19 4.06Z" vector-effect="non-scaling-stroke" stroke="none"/>
        </g>
      </g>
      <rect id="ITEM_3_TEXT_BG" x="-208" y="36" width="416" height="202" rx="22" fill="var(--panel)" fill-opacity="0.94" stroke="var(--accent-3)" stroke-width="2"/>
      <text id="ITEM_3_HEAD" x="0.0" y="50.0" text-anchor="middle" font-weight="bold" font-size="19" fill="var(--accent-3)" style="font-size: 30px; font-family: Inter, Segoe UI, Kalam, Roboto, Helvetica, Arial, sans-serif; font-weight: 700; letter-spacing:-0.4px;" data-bg-id="ITEM_3_TEXT_BG" dominant-baseline="text-before-edge" fill-opacity="1.0" data-final-font-size="30">
        <tspan x="0.0" dy="33.25px">Long Planning</tspan>
      </text>
      <rect id="ITEM_3_HEAD_FRAME" x="-100" y="50" width="200" height="50" fill="none"/>
      <text id="ITEM_3_BODY" x="0.0" y="100.0" text-anchor="middle" font-size="15" fill="var(--primary-text)" style="font-size: 26px; font-family: Inter, Segoe UI, Kalam, Roboto, Helvetica, Arial, sans-serif; font-weight: 400;" data-bg-id="ITEM_3_TEXT_BG" dominant-baseline="text-before-edge" data-final-font-size="26">
        <tspan x="0.0" dy="32.84px">Agents execute dozens</tspan>
        <tspan x="0.0" dy="29.90px">of intermediate steps</tspan>
      </text>
      <rect id="ITEM_3_BODY_FRAME" x="-190" y="100" width="380" height="120" fill="none"/>
    </g>
    <!-- ITEM 4: Bottom left -->
    <g transform="translate(560, 700)">
      <circle id="ITEM_4_NODE" r="45" fill="var(--icon-pad-bg)" stroke="var(--accent-4)" stroke-width="3"/>
      <circle r="53" fill="none" stroke="var(--accent-4)" stroke-width="3" stroke-dasharray="6 4"/>
      <g id="ITEM_4_ICON" transform="translate(-30, -30)" data-icon-size="60" stroke-dasharray="6 4">
        <g transform="translate(-10.114285714285716,-11.994642857142859) scale(2.507142857142857)">
          <path d="M9.65847 12L12.9578 18.4678C13.1134 18.6051 13.2626 18.7496 13.4048 18.9008C14.503 15.4777 17.7121 13 21.5 13C26.1944 13 30 16.8056 30 21.5C30 26.1911 26.1998 29.9946 21.51 30H8.60001C4.96001 30 2.01001 27.05 2.01001 23.41C2.01001 22.4369 2.22086 21.513 2.59936 20.6817L7.23438 6.35938C7.56251 5.45312 8.51563 3.57812 10.4219 3.57812C13.9375 3.57812 16.0156 6.20312 16.0156 7.84375C16.0156 9.14563 15.3446 10.0845 14.9573 10.4191C14.7717 11.3175 14.0022 12 13.078 12H9.65847Z" fill="#9B9B9B"/>
          <path d="M9 11C9.55228 11 10 10.5523 10 10C10 9.44772 9.55228 9 9 9C8.44772 9 8 9.44772 8 10C8 10.5523 8.44772 11 9 11Z" fill="#D3D3D3"/>
          <path d="M25 21.5C25 23.433 23.433 25 21.5 25C19.567 25 18 23.433 18 21.5C18 19.567 19.567 18 21.5 18C23.433 18 25 19.567 25 21.5Z" fill="#D3D3D3"/>
          <path d="M11.1124 7.07257C10.5843 6.80957 10 7.29405 10 8H13L11.1124 7.07257Z" fill="#636363"/>
          <path d="M13.5998 8.07422C13.9319 8.29376 14.1719 8.7588 14.1719 9.51563C14.1719 10.2 13.9424 10.5417 13.7107 10.7256C13.4575 10.9265 13.1235 11 12.8438 11H7.25623C7.58798 11.5983 8.20892 12 8.92198 12H12.8501C13.2729 11.9989 13.8497 11.8919 14.3323 11.5088C14.3463 11.4978 14.3601 11.4865 14.3738 11.4751C14.7588 11.1081 15 10.5812 15 10C15 9.08165 14.4087 8.31013 13.5998 8.07422Z" fill="#636363"/>
          <path d="M4.4375 23.498C4.4375 21.564 6.00537 19.9961 7.93944 19.9961C9.87352 19.9961 11.4414 21.564 11.4414 23.498C11.4414 25.4321 9.87352 27 7.93944 27C6.00537 27 4.4375 25.4321 4.4375 23.498ZM7.93944 20.9961C6.55766 20.9961 5.4375 22.1163 5.4375 23.498C5.4375 24.8798 6.55766 26 7.93944 26C9.32123 26 10.4414 24.8798 10.4414 23.498C10.4414 22.1163 9.32123 20.9961 7.93944 20.9961Z" fill="#636363"/>
          <path d="M12.9972 18.5028C12.9847 18.4916 12.9722 18.4805 12.9596 18.4694L12.9577 18.4678L12.2961 17.1708C11.8749 16.9309 11.4189 16.7269 10.9532 16.561C10.0041 16.2231 8.97902 16.0312 8.0625 16.0312C6.33048 16.0312 4.75792 16.7103 3.5322 17.7992L2.6214 20.6136C3.65172 18.5349 5.71137 17.0312 8.0625 17.0312C8.85007 17.0312 9.76161 17.1982 10.6178 17.5031C11.328 17.756 11.976 18.0951 12.4746 18.4899C12.2508 19.2658 12.1461 20.1374 12.1577 21.0406C12.1767 22.5042 12.5012 24.0897 13.1612 25.5567C13.9745 27.3647 15.3055 29.0036 17.2022 30H21.4687C17.6572 30 15.2712 27.8097 14.0732 25.1464C13.4714 23.8088 13.1749 22.3591 13.1577 21.0277C13.1476 20.2505 13.2327 19.5267 13.3999 18.8957C13.2719 18.7597 13.1381 18.6292 12.999 18.5045L12.9972 18.5028Z" fill="#636363"/>
        </g>
      </g>
      <rect id="ITEM_4_TEXT_BG" x="-208" y="36" width="416" height="202" rx="22" fill="var(--panel)" fill-opacity="0.94" stroke="var(--accent-4)" stroke-width="2"/>
      <text id="ITEM_4_HEAD" x="0.0" y="50.0" text-anchor="middle" font-weight="bold" font-size="19" fill="var(--accent-4)" style="font-size: 25px; font-family: Inter, Segoe UI, Kalam, Roboto, Helvetica, Arial, sans-serif; font-weight: 700; letter-spacing:-0.4px;" data-bg-id="ITEM_4_TEXT_BG" dominant-baseline="text-before-edge" fill-opacity="1.0" data-final-font-size="25">
        <tspan x="0.0" dy="30.62px">Independent Agency</tspan>
      </text>
      <rect id="ITEM_4_HEAD_FRAME" x="-100" y="50" width="200" height="50" fill="none"/>
      <text id="ITEM_4_BODY" x="0.0" y="100.0" text-anchor="middle" font-size="15" fill="var(--primary-text)" style="font-size: 26px; font-family: Inter, Segoe UI, Kalam, Roboto, Helvetica, Arial, sans-serif; font-weight: 400;" data-bg-id="ITEM_4_TEXT_BG" dominant-baseline="text-before-edge" data-final-font-size="26">
        <tspan x="0.0" dy="32.84px">Systems pursue goals with limited</tspan>
        <tspan x="0.0" dy="29.90px">supervision</tspan>
      </text>
      <rect id="ITEM_4_BODY_FRAME" x="-190" y="100" width="380" height="120" fill="none"/>
    </g>
  </g>
</svg>
