<?xml version='1.0' encoding='utf-8'?>
<svg xmlns="http://www.w3.org/2000/svg" width="1920" height="1080" viewBox="0 0 1920 1080" data-theme="dark">
  <style>
        @font-face {
            font-family: 'Inter';
            src: url('assets/fonts/Inter-Regular.ttf') format('truetype');
            font-weight: 400;
            font-style: normal;
            font-display: swap;
        }
        @font-face {
            font-family: 'Inter';
            src: url('assets/fonts/Inter-Bold.ttf') format('truetype');
            font-weight: 600;
            font-style: normal;
            font-display: swap;
        }
        @font-face {
            font-family: 'Inter';
            src: url('assets/fonts/Inter-Bold.ttf') format('truetype');
            font-weight: 800;
            font-style: normal;
            font-display: swap;
        }
        
:root {
    --background: #0f172a;
    --panel: #1e293b;
    --primary-text: #f1f5f9;
    --muted-text: #94a3b8;
    --inverse-text: #0f172a;
    --border: #334155;
    --shadow-color: #000000;
    --icon-pad-bg: #1e293b;
    --art-glow: #7dd3fc;
    --art-glow-opacity: 0.18;
    --art-sheen: #ffffff;
    --art-sheen-opacity: 0.18;
    --art-shadow: #000000;
    --art-shadow-opacity: 0.28;
    --art-muted-line: #64748b;
    --art-panel-tint: #1e293b;
    --font-family: 'Inter', 'Segoe UI', 'Kalam', Roboto, Helvetica, Arial, sans-serif;
    --radius-xl: 16px;
    --font-family-headline: 'Inter', 'Segoe UI', 'Kalam', Roboto, Helvetica, Arial, sans-serif;
    --font-family-body: 'Inter', 'Segoe UI', 'Kalam', Roboto, Helvetica, Arial, sans-serif;
    --font-heading: 'Inter', 'Segoe UI', 'Kalam', Roboto, Helvetica, Arial, sans-serif;
    --font-body: 'Inter', 'Segoe UI', 'Kalam', Roboto, Helvetica, Arial, sans-serif;
    --font-size-h1: 56px;
    --font-size-h2: 40px;
    --font-size-h3: 28px;
    --font-size-body: 24px;
    --font-size-caption: 18px;
    --secondary-text: var(--muted-text);
    --panel-border: var(--border);
    --font-weight-normal: 400;
    --font-weight-medium: 500;
    --font-weight-semibold: 600;
    --font-weight-bold: 700;
    --spacing-gutter-pct: 0.07;
    --spacing-top-pct: 0.15;
    --spacing-bottom-pct: 0.07;
    --spacing-title-y-pct: 0.055;
    --accent-1: #93c5fd;
    --accent-2: #86efac;
    --accent-3: #fcd34d;
    --accent-4: #f9a8d4;
    --accent-5: #c4b5fd;
    --accent-6: #a5f3fc;
}
:root[data-theme="dark"] {
    --background: #0f172a;
    --panel: #1e293b;
    --primary-text: #f1f5f9;
    --muted-text: #94a3b8;
    --inverse-text: #0f172a;
    --border: #334155;
    --shadow-color: #000000;
    --icon-pad-bg: #1e293b;
    --art-glow: #7dd3fc;
    --art-glow-opacity: 0.18;
    --art-sheen: #ffffff;
    --art-sheen-opacity: 0.18;
    --art-shadow: #000000;
    --art-shadow-opacity: 0.28;
    --art-muted-line: #64748b;
    --art-panel-tint: #1e293b;
    --accent-1: #93c5fd;
    --accent-2: #86efac;
    --accent-3: #fcd34d;
    --accent-4: #f9a8d4;
    --accent-5: #c4b5fd;
    --accent-6: #a5f3fc;
}
:root[data-theme="light"] {
    --background: #f8fafc;
    --panel: #ffffff;
    --primary-text: #0f172a;
    --muted-text: #64748b;
    --inverse-text: #ffffff;
    --border: #e2e8f0;
    --shadow-color: #000000;
    --icon-pad-bg: #1e293b;
    --art-glow: #0891b2;
    --art-glow-opacity: 0.10;
    --art-sheen: #ffffff;
    --art-sheen-opacity: 0.34;
    --art-shadow: #0f172a;
    --art-shadow-opacity: 0.14;
    --art-muted-line: #94a3b8;
    --art-panel-tint: #f1f5f9;
    --accent-1: #3b82f6;
    --accent-2: #22c55e;
    --accent-3: #f59e0b;
    --accent-4: #ec4899;
    --accent-5: #8b5cf6;
    --accent-6: #06b6d4;
}</style>
  <rect x="0" y="0" width="1.92E+3" height="1.08E+3" fill="#252a34" stroke="none" id="programmatic_background"/>
  <line id="HEADER_DECOR" x1="960.0" x2="1080.0" y1="79.0" y2="79.0" stroke="var(--accent-1)" stroke-width="6" stroke-linecap="round"/>
  <defs>
    <pattern id="svg9a34a784-napkin-hatch" patternUnits="userSpaceOnUse" width="12" height="12">
      <path d="M -3 12 L 12 -3 M 0 15 L 15 0" fill="none" stroke="var(--primary-text)" stroke-width="1" stroke-opacity="0.05"/>
    </pattern>
    <filter id="svg9a34a784-shadow" x="-30%" y="-30%" width="160%" height="160%">
      <feDropShadow dx="0" dy="2" stdDeviation="3" flood-color="#000000" flood-opacity="0.08"/>
    </filter>
    <linearGradient id="svg9a34a784-summit-grad" x1="0%" y1="0%" x2="0%" y2="100%">
      <stop offset="0%" stop-color="var(--muted-text)"/>
      <stop offset="100%" stop-color="var(--panel)"/>
    </linearGradient>
    <linearGradient id="svg9a34a784-snow-grad" x1="0%" y1="0%" x2="0%" y2="100%">
      <stop offset="0%" stop-color="var(--background)"/>
      <stop offset="100%" stop-color="var(--muted-text)"/>
    </linearGradient>
    <radialGradient id="svg9a34a784-universal-edge-vignette" cx="50%" cy="50%" r="72%">
      <stop offset="0%" stop-color="var(--background)" stop-opacity="0"/>
      <stop offset="72%" stop-color="var(--background)" stop-opacity="0.12"/>
      <stop offset="100%" stop-color="var(--primary-text)" stop-opacity="0.08"/>
    </radialGradient>
    <linearGradient id="svg9a34a784-universal-surface-sheen" x1="0%" y1="0%" x2="100%" y2="100%">
      <stop offset="0%" stop-color="var(--art-sheen)" stop-opacity="var(--art-sheen-opacity)"/>
      <stop offset="46%" stop-color="var(--art-sheen)" stop-opacity="0.035"/>
      <stop offset="100%" stop-color="var(--art-panel-tint)" stop-opacity="0.14"/>
    </linearGradient>
    <radialGradient id="svg9a34a784-universal-icon-aura" cx="50%" cy="42%" r="64%">
      <stop offset="0%" stop-color="var(--art-glow)" stop-opacity="var(--art-glow-opacity)"/>
      <stop offset="100%" stop-color="var(--background)" stop-opacity="0"/>
    </radialGradient>
    <filter id="svg9a34a784-text-glow" x="-20%" y="-20%" width="140%" height="140%">
      <feDropShadow dx="0" dy="0" stdDeviation="2" flood-color="#000000" flood-opacity="0.4"/>
    </filter>
    <marker id="svg9a34a784-arrowhead" markerWidth="10" markerHeight="7" refX="9" refY="3.5" orient="auto" markerUnits="strokeWidth">
      <polygon points="0 0, 10 3.5, 0 7" fill="var(--muted-text)" opacity="0.6"/>
    </marker>
  </defs>
  <rect width="100%" height="100%" fill="var(--background)" id="CANVAS_BG"/>
  <rect width="100%" height="100%" fill="url(#svg9a34a784-napkin-hatch)"/>
  <rect id="UNIVERSAL_EDGE_VIGNETTE" width="100%" height="100%" fill="url(#svg9a34a784-universal-edge-vignette)" opacity="0.62"/>
  <text id="TITLE" x="960.0" y="59" font-size="48" font-weight="700" fill="#f1f5f9" text-anchor="middle" style="font-size: 60px; font-family: Inter, Segoe UI, Kalam, Roboto, Helvetica, Arial, sans-serif; font-weight: 700; letter-spacing:-1.2px;" data-final-font-size="60">
    <tspan x="960.0" dy="68.00px">Edo State Trial Results</tspan>
  </text>
  <rect id="TITLE_FRAME" x="134" y="10" width="1652" height="60" fill="none"/>
  <g id="DIAGRAM_MAIN">
    <!-- Mountain Base -->
    <path d="M -100 1080  L -25.0 1007.0 L 65.0 874.0 L 65.0 821.0 L 155.0 688.0 L 245.0 635.0 L 245.0 502.0 L 335.0 449.0 L 425.0 316.0 L 425.0 263.0 L 500 150 L 580.0 258.0 L 600.0 381.0 L 700.0 414.0 L 720.0 537.0 L 820.0 660.0 L 840.0 693.0 L 940.0 816.0 L 960.0 939.0 L 1060.0 972.0 L 1100 1080 Z" fill="url(#svg9a34a784-summit-grad)" stroke="var(--primary-text)" stroke-width="3" stroke-linejoin="round" stroke-opacity="0.4"/>
    <!-- Snow Cap -->
    <path d="M 380 300 L 420 280 L 470 310 L 520 280 L 560 320 L 600 290 L 640 340 L 500 150 Z" fill="url(#svg9a34a784-snow-grad)" stroke="var(--primary-text)" stroke-width="2" stroke-linejoin="round" stroke-opacity="0.6"/>
    <!-- Connecting Zig-Zag Trail -->
    <path d="M 983.8709677419354 900.0 L 833.3333333333333 666.6666666666666 L 682.7956989247311 433.3333333333333 L 532.258064516129 240.0" fill="none" stroke="var(--muted-text)" stroke-width="4" stroke-dasharray="12 10" stroke-linecap="round" opacity="0.6"/>
    <circle id="ITEM_1_BORDER" cx="983.8709677419354" cy="900.0" r="37" fill="var(--background)" stroke="var(--accent-1)" stroke-width="3"/>
    <circle id="ITEM_1_STROKE" cx="983.8709677419354" cy="900.0" r="45" fill="transparent" stroke="var(--accent-6)" stroke-width="3" stroke-dasharray="6 4" stroke-opacity="1.0"/>
    <circle id="ITEM_1_PAD" cx="983.87" cy="900.00" r="40.00" fill="var(--icon-pad-bg)" stroke="var(--primary-text)" stroke-width="2" opacity="0.9"/>
    <circle id="ITEM_1_PAD_INNER" cx="983.87" cy="900.00" r="31.20" fill="var(--accent-6)" fill-opacity="0.22"/>
    <g id="ITEM_1_ICON" transform="translate(958.8709677419354, 875.0)" data-icon-size="50" stroke-dasharray="6 4">
      <g transform="translate(-10.341592920353987,-10.617699115044255) scale(2.2088495575221243)">
        <path d="M30 16.01H2L3.71999 11.7C3.88999 11.27 4.29999 10.99 4.75999 10.99H27.24C27.7 10.99 28.11 11.27 28.28 11.7L30 16.01Z" fill="#8C5543"/>
        <path d="M17.51 3.32996H20.2C20.36 3.32996 20.49 3.45996 20.49 3.61996V5.03996C20.49 5.19996 20.36 5.32996 20.2 5.32996H18.12C17.79 5.32996 17.52 5.05996 17.52 4.72996V3.32996H17.51Z" fill="#C3EF3C"/>
        <path d="M19.1 4.32996H16V2.32996H19.1C19.32 2.32996 19.5 2.50996 19.5 2.72996V3.91996C19.51 4.14996 19.33 4.32996 19.1 4.32996Z" fill="#00F397"/>
        <path opacity="0.7" d="M2 16H9V30H2V16ZM30 16H23V30H30V16Z" fill="#FFDEA7"/>
        <path d="M22.72 13.96L16.57 7.89998C16.26 7.58998 15.76 7.58998 15.45 7.89998L9.30001 13.96C9.12001 14.14 9.01001 14.39 9.01001 14.64V15.84V16.22V30.01H12.9773L15.9912 28.8035L19.0051 30.01H23.01V16.21V15.83V14.63C23 14.38 22.9 14.14 22.72 13.96Z" fill="#FFCE7C"/>
        <path d="M4.71999 21H3.28C3.13 21 3 20.87 3 20.72V18.28C3 18.13 3.13 18 3.28 18H4.71999C4.86999 18 5 18.13 5 18.28V20.72C5 20.88 4.87999 21 4.71999 21ZM8 20.72V18.28C8 18.13 7.86999 18 7.71999 18H6.28C6.13 18 6 18.13 6 18.28V20.72C6 20.87 6.13 21 6.28 21H7.71999C7.87999 21 8 20.88 8 20.72ZM5 24.72V22.28C5 22.13 4.86999 22 4.71999 22H3.28C3.13 22 3 22.13 3 22.28V24.72C3 24.87 3.13 25 3.28 25H4.71999C4.87999 25 5 24.88 5 24.72ZM8 24.72V22.28C8 22.13 7.86999 22 7.71999 22H6.28C6.13 22 6 22.13 6 22.28V24.72C6 24.87 6.13 25 6.28 25H7.71999C7.87999 25 8 24.88 8 24.72ZM25.72 21H24.28C24.13 21 24 20.87 24 20.72V18.28C24 18.13 24.13 18 24.28 18H25.72C25.87 18 26 18.13 26 18.28V20.72C26 20.88 25.88 21 25.72 21ZM27.28 21H28.72C28.88 21 29 20.88 29 20.72V18.28C29 18.13 28.87 18 28.72 18H27.28C27.13 18 27 18.13 27 18.28V20.72C27 20.87 27.13 21 27.28 21ZM25.72 25H24.28C24.13 25 24 24.87 24 24.72V22.28C24 22.13 24.13 22 24.28 22H25.72C25.87 22 26 22.13 26 22.28V24.72C26 24.88 25.88 25 25.72 25ZM27.28 25H28.72C28.88 25 29 24.88 29 24.72V22.28C29 22.13 28.87 22 28.72 22H27.28C27.13 22 27 22.13 27 22.28V24.72C27 24.87 27.13 25 27.28 25Z" fill="#83CBFF"/>
        <path d="M16 18C17.6569 18 19 16.6569 19 15C19 13.3431 17.6569 12 16 12C14.3431 12 13 13.3431 13 15C13 16.6569 14.3431 18 16 18Z" fill="white"/>
        <path d="M15.51 6.1994V2.47C15.51 2.21 15.72 2 15.98 2H16.04C16.3 2 16.51 2.21 16.51 2.47V6.21258C16.5559 6.2437 16.5995 6.27951 16.64 6.31999L23.67 13.35C23.88 13.56 24 13.84 24 14.14L23.99 15.96C24 15.97 24 15.99 24 16.01C24 16.29 23.78 16.51 23.5 16.51C23.22 16.51 23 16.29 23 16.01C23 16 23.0025 15.9925 23.005 15.985C23.0075 15.9775 23.01 15.97 23.01 15.96H23V14.75C23 14.49 22.89 14.24 22.71 14.06L16.56 7.91C16.25 7.6 15.75 7.6 15.44 7.91L9.28999 14.06C9.09999 14.24 9 14.49 9 14.75V15.96H8.99C8.99 15.97 8.9925 15.9775 8.995 15.985C8.9975 15.9925 9 16 9 16.01C9 16.29 8.78 16.51 8.5 16.51C8.22 16.51 8 16.29 8 16.01C8 16 8.0025 15.9925 8.005 15.985C8.0075 15.9775 8.00999 15.97 8.00999 15.96H8V14.14C8 13.85 8.11999 13.56 8.32999 13.35L15.36 6.31999C15.4063 6.27366 15.4567 6.23347 15.51 6.1994ZM15.5 14.91C15.5 14.9281 15.5009 14.946 15.5027 14.9636C15.4874 15.1077 15.5365 15.2565 15.65 15.37L17.13 16.85C17.22 16.95 17.35 17 17.48 17C17.61 17 17.73 16.95 17.84 16.85C18.04 16.65 18.04 16.34 17.84 16.14L16.5 14.8V13.5C16.5 13.22 16.28 13 16 13C15.72 13 15.5 13.22 15.5 13.5V14.91ZM19.01 30H12.96V24.7C12.96 24.31 13.27 24 13.66 24H18.31C18.7 24 19.01 24.31 19.01 24.7V30Z" fill="#7D4533"/>
      </g>
    </g>
    <!-- Connector line to the rigid text column -->
    <line id="ITEM_1_CONN" x1="1028.8709677419354" y1="900.0" x2="1230" y2="900.0" stroke="var(--accent-6)" stroke-width="2" stroke-dasharray="6 4" opacity="0.6" stroke-opacity="1.0"/>
    <circle id="ITEM_1_DOT" cx="1230" cy="900.0" r="5" fill="var(--accent-6)" fill-opacity="1.0"/>
    <rect id="ITEM_1_HEAD_FRAME" x="1250" y="840.0" width="620" height="45" fill="none"/>
    <rect id="ITEM_1_TEXT_BG" x="1232" y="826" width="656" height="182" rx="22" fill="var(--panel)" fill-opacity="0.94" stroke="var(--accent-1)" stroke-width="2"/>
    <text id="ITEM_1_HEAD" x="1250.0" y="840.0" font-weight="bold" font-size="28" fill="var(--accent-6)" text-anchor="start" data-bg-id="ITEM_1_TEXT_BG" fill-opacity="1.0" stroke="none" style="font-size: 30px; font-family: Inter, Segoe UI, Kalam, Roboto, Helvetica, Arial, sans-serif; font-weight: 700; letter-spacing:-0.4px;" data-final-font-size="30">
      <tspan x="1250.0" dy="30.75px">Study Design</tspan>
    </text>
    <rect id="ITEM_1_BODY_FRAME" x="1250" y="905.0" width="620" height="85" fill="none"/>
    <text id="ITEM_1_BODY" x="1250.0" y="905.0" font-size="18" fill="var(--primary-text)" text-anchor="start" data-bg-id="ITEM_1_TEXT_BG" style="font-size: 26px; font-family: Inter, Segoe UI, Kalam, Roboto, Helvetica, Arial, sans-serif; font-weight: 400;" data-final-font-size="26">
      <tspan x="1250.0" dy="31.82px">Randomized trial in public secondary schools</tspan>
    </text>
    <circle id="ITEM_2_BORDER" cx="833.3333333333333" cy="666.6666666666666" r="37" fill="var(--background)" stroke="var(--accent-2)" stroke-width="3"/>
    <circle id="ITEM_2_STROKE" cx="833.3333333333333" cy="666.6666666666666" r="45" fill="transparent" stroke="var(--accent-1)" stroke-width="3" stroke-dasharray="6 4" stroke-opacity="1.0"/>
    <circle id="ITEM_2_PAD" cx="833.33" cy="666.67" r="40.00" fill="var(--icon-pad-bg)" stroke="var(--primary-text)" stroke-width="2" opacity="0.9"/>
    <circle id="ITEM_2_PAD_INNER" cx="833.33" cy="666.67" r="31.20" fill="var(--accent-1)" fill-opacity="0.22"/>
    <g id="ITEM_2_ICON" transform="translate(808.3333333333333, 641.6666666666666)" data-icon-size="50" stroke-dasharray="6 4">
      <g transform="translate(-8.844067796610172,-8.844067796610172) scale(2.820338983050848)" vector-effect="non-scaling-stroke" stroke-width="2.31" stroke-linecap="round" stroke-linejoin="round" stroke-opacity="1.0">
        <rect width="14" height="8" x="5" y="2" rx="2" vector-effect="non-scaling-stroke" fill="none" stroke="#f1f5f9"/>
        <rect width="20" height="8" x="2" y="14" rx="2" vector-effect="non-scaling-stroke" fill="none" stroke="#f1f5f9"/>
        <path d="M6 18h2" vector-effect="non-scaling-stroke" fill="none" stroke="#f1f5f9"/>
        <path d="M12 18h6" vector-effect="non-scaling-stroke" fill="none" stroke="#f1f5f9"/>
      </g>
    </g>
    <!-- Connector line to the rigid text column -->
    <line id="ITEM_2_CONN" x1="878.3333333333333" y1="666.6666666666666" x2="1230" y2="666.6666666666666" stroke="var(--accent-1)" stroke-width="2" stroke-dasharray="6 4" opacity="0.6" stroke-opacity="1.0"/>
    <circle id="ITEM_2_DOT" cx="1230" cy="666.6666666666666" r="5" fill="var(--accent-1)" fill-opacity="1.0"/>
    <rect id="ITEM_2_HEAD_FRAME" x="1250" y="606.6666666666666" width="620" height="45" fill="none"/>
    <rect id="ITEM_2_TEXT_BG" x="1232" y="592.6666666666666" width="656" height="182" rx="22" fill="var(--panel)" fill-opacity="0.94" stroke="var(--accent-2)" stroke-width="2"/>
    <text id="ITEM_2_HEAD" x="1250.0" y="606.6666666666666" font-weight="bold" font-size="28" fill="var(--accent-1)" text-anchor="start" data-bg-id="ITEM_2_TEXT_BG" fill-opacity="1.0" stroke="none" style="font-size: 30px; font-family: Inter, Segoe UI, Kalam, Roboto, Helvetica, Arial, sans-serif; font-weight: 700; letter-spacing:-0.4px;" data-final-font-size="30">
      <tspan x="1250.0" dy="30.75px">AI Tool</tspan>
    </text>
    <rect id="ITEM_2_BODY_FRAME" x="1250" y="671.6666666666666" width="620" height="85" fill="none"/>
    <text id="ITEM_2_BODY" x="1250.0" y="671.6666666666666" font-size="18" fill="var(--primary-text)" text-anchor="start" data-bg-id="ITEM_2_TEXT_BG" style="font-size: 26px; font-family: Inter, Segoe UI, Kalam, Roboto, Helvetica, Arial, sans-serif; font-weight: 400;" data-final-font-size="26">
      <tspan x="1250.0" dy="31.82px">Microsoft Copilot powered by GPT-4</tspan>
    </text>
    <circle id="ITEM_3_BORDER" cx="682.7956989247311" cy="433.3333333333333" r="37" fill="var(--background)" stroke="var(--accent-3)" stroke-width="3"/>
    <circle id="ITEM_3_STROKE" cx="682.7956989247311" cy="433.3333333333333" r="45" fill="transparent" stroke="var(--accent-2)" stroke-width="3" stroke-dasharray="6 4" stroke-opacity="1.0"/>
    <circle id="ITEM_3_PAD" cx="682.80" cy="433.33" r="40.00" fill="var(--icon-pad-bg)" stroke="var(--primary-text)" stroke-width="2" opacity="0.9"/>
    <circle id="ITEM_3_PAD_INNER" cx="682.80" cy="433.33" r="31.20" fill="var(--accent-2)" fill-opacity="0.22"/>
    <g id="ITEM_3_ICON" transform="translate(657.7956989247311, 408.3333333333333)" data-icon-size="50" stroke-dasharray="6 4">
      <g transform="translate(-10.65714285714286,-10.65714285714286) scale(2.2285714285714286)">
        <path d="M2 6C2 3.79086 3.79086 2 6 2H26C28.2091 2 30 3.79086 30 6V26C30 27.4806 29.1956 28.7733 28 29.4649L26.5537 28.9997C25.5578 28.6794 24.4759 28.762 23.5402 29.2299L22 30H19L16 28.5L13 30H10L8.45982 29.2299C7.52406 28.762 6.44223 28.6794 5.44626 28.9997L4 29.4649C2.8044 28.7733 2 27.4806 2 26V6Z" fill="#E1D8EC"/>
        <path d="M10 11V21H2V22H10V30H11V22H21V30H22V22H30V21H22V11H30V10H22V2H21V10H11V2H10V10H2V11H10ZM11 11H21V21H11V11Z" fill="#B4ACBC"/>
        <path d="M6 30H10V10.2135C10 9.54155 9.4527 9 8.77365 9H5.22635C4.5473 9 4 9.54155 4 10.2135V29.4649C4.58835 29.8052 5.27143 30 6 30Z" fill="#00D26A"/>
        <path d="M17.7736 17H14.2264C13.5473 17 13 17.5417 13 18.2137V30H19V18.2137C19 17.5417 18.4527 17 17.7736 17Z" fill="#F70A8D"/>
        <path d="M22 30H26C26.7286 30 27.4117 29.8052 28 29.4649V7.20899C28 6.53955 27.4527 6 26.7736 6H23.2264C22.5473 6 22 6.53955 22 7.20899V30Z" fill="#00A6ED"/>
      </g>
    </g>
    <!-- Connector line to the rigid text column -->
    <line id="ITEM_3_CONN" x1="727.7956989247311" y1="433.3333333333333" x2="1230" y2="433.3333333333333" stroke="var(--accent-2)" stroke-width="2" stroke-dasharray="6 4" opacity="0.6" stroke-opacity="1.0"/>
    <circle id="ITEM_3_DOT" cx="1230" cy="433.3333333333333" r="5" fill="var(--accent-2)" fill-opacity="1.0"/>
    <rect id="ITEM_3_HEAD_FRAME" x="1250" y="373.3333333333333" width="620" height="45" fill="none"/>
    <rect id="ITEM_3_TEXT_BG" x="1232" y="359.3333333333333" width="656" height="182" rx="22" fill="var(--panel)" fill-opacity="0.94" stroke="var(--accent-3)" stroke-width="2"/>
    <text id="ITEM_3_HEAD" x="1250.0" y="373.3333333333333" font-weight="bold" font-size="28" fill="var(--accent-2)" text-anchor="start" data-bg-id="ITEM_3_TEXT_BG" fill-opacity="1.0" stroke="none" style="font-size: 30px; font-family: Inter, Segoe UI, Kalam, Roboto, Helvetica, Arial, sans-serif; font-weight: 700; letter-spacing:-0.4px;" data-final-font-size="30">
      <tspan x="1250.0" dy="30.75px">Learning Gain</tspan>
    </text>
    <rect id="ITEM_3_BODY_FRAME" x="1250" y="438.3333333333333" width="620" height="85" fill="none"/>
    <text id="ITEM_3_BODY" x="1250.0" y="438.3333333333333" font-size="18" fill="var(--primary-text)" text-anchor="start" data-bg-id="ITEM_3_TEXT_BG" style="font-size: 26px; font-family: Inter, Segoe UI, Kalam, Roboto, Helvetica, Arial, sans-serif; font-weight: 400;" data-final-font-size="26">
      <tspan x="1250.0" dy="31.82px">Equivalent to 1.5 to 2 years of progress</tspan>
    </text>
    <circle id="ITEM_4_BORDER" cx="532.258064516129" cy="240.0" r="37" fill="var(--background)" stroke="var(--accent-4)" stroke-width="3"/>
    <circle id="ITEM_4_STROKE" cx="532.258064516129" cy="240.0" r="45" fill="transparent" stroke="var(--accent-3)" stroke-width="3" stroke-dasharray="6 4" stroke-opacity="1.0"/>
    <circle id="ITEM_4_PAD" cx="532.26" cy="240.00" r="40.00" fill="var(--icon-pad-bg)" stroke="var(--primary-text)" stroke-width="2" opacity="0.9"/>
    <circle id="ITEM_4_PAD_INNER" cx="532.26" cy="240.00" r="31.20" fill="var(--accent-3)" fill-opacity="0.22"/>
    <g id="ITEM_4_ICON" transform="translate(507.258064516129, 215.0)" data-icon-size="50" stroke-dasharray="6 4">
      <g transform="translate(-13.400000000000004,-13.400000000000002) scale(3.2)" vector-effect="non-scaling-stroke" stroke-width="2.31" stroke-linecap="round" stroke-linejoin="round" stroke-opacity="1.0">
        <path d="M5 19.5V5C5 3.89543 5.89543 3 7 3H18.4C18.7314 3 19 3.26863 19 3.6V21" stroke="#f1f5f9" vector-effect="non-scaling-stroke" fill="none"/>
        <path d="M9 7L15 7" stroke="#f1f5f9" vector-effect="non-scaling-stroke" fill="none"/>
        <path d="M6.5 15L19 15" stroke="#f1f5f9" vector-effect="non-scaling-stroke" fill="none"/>
        <path d="M6.5 18L19 18" stroke="#f1f5f9" vector-effect="non-scaling-stroke" fill="none"/>
        <path d="M6.5 21L19 21" stroke="#f1f5f9" vector-effect="non-scaling-stroke" fill="none"/>
        <path d="M6.5 18C5.5 18 5 17.3284 5 16.5C5 15.6716 5.5 15 6.5 15" stroke="#f1f5f9" vector-effect="non-scaling-stroke" fill="none"/>
        <path d="M6.5 21C5.5 21 5 20.3284 5 19.5C5 18.6716 5.5 18 6.5 18" stroke="#f1f5f9" vector-effect="non-scaling-stroke" fill="none"/>
      </g>
    </g>
    <!-- Connector line to the rigid text column -->
    <line id="ITEM_4_CONN" x1="577.258064516129" y1="240.0" x2="1230" y2="240.0" stroke="var(--accent-3)" stroke-width="2" stroke-dasharray="6 4" opacity="0.6" stroke-opacity="1.0"/>
    <circle id="ITEM_4_DOT" cx="1230" cy="240.0" r="5" fill="var(--accent-3)" fill-opacity="1.0"/>
    <rect id="ITEM_4_HEAD_FRAME" x="1250" y="180.0" width="620" height="45" fill="none"/>
    <rect id="ITEM_4_TEXT_BG" x="1232" y="166" width="656" height="182" rx="22" fill="var(--panel)" fill-opacity="0.94" stroke="var(--accent-4)" stroke-width="2"/>
    <text id="ITEM_4_HEAD" x="1250.0" y="180.0" font-weight="bold" font-size="28" fill="var(--accent-3)" text-anchor="start" data-bg-id="ITEM_4_TEXT_BG" fill-opacity="1.0" stroke="none" style="font-size: 30px; font-family: Inter, Segoe UI, Kalam, Roboto, Helvetica, Arial, sans-serif; font-weight: 700; letter-spacing:-0.4px;" data-final-font-size="30">
      <tspan x="1250.0" dy="30.75px">Gender Impact</tspan>
    </text>
    <rect id="ITEM_4_BODY_FRAME" x="1250" y="245.0" width="620" height="85" fill="none"/>
    <text id="ITEM_4_BODY" x="1250.0" y="245.0" font-size="18" fill="var(--primary-text)" text-anchor="start" data-bg-id="ITEM_4_TEXT_BG" style="font-size: 26px; font-family: Inter, Segoe UI, Kalam, Roboto, Helvetica, Arial, sans-serif; font-weight: 400;" data-final-font-size="26">
      <tspan x="1250.0" dy="31.82px">Girls showed particularly strong improvement</tspan>
    </text>
  </g>
</svg>
