<?xml version='1.0' encoding='utf-8'?>
<svg xmlns="http://www.w3.org/2000/svg" width="1920" height="1080" viewBox="0 0 1920 1080" data-theme="dark">
  <style>
        @font-face {
            font-family: 'Inter';
            src: url('assets/fonts/Inter-Regular.ttf') format('truetype');
            font-weight: 400;
            font-style: normal;
            font-display: swap;
        }
        @font-face {
            font-family: 'Inter';
            src: url('assets/fonts/Inter-Bold.ttf') format('truetype');
            font-weight: 600;
            font-style: normal;
            font-display: swap;
        }
        @font-face {
            font-family: 'Inter';
            src: url('assets/fonts/Inter-Bold.ttf') format('truetype');
            font-weight: 800;
            font-style: normal;
            font-display: swap;
        }
        
:root {
    --background: #0f172a;
    --panel: #1e293b;
    --primary-text: #f1f5f9;
    --muted-text: #94a3b8;
    --inverse-text: #0f172a;
    --border: #334155;
    --shadow-color: #000000;
    --icon-pad-bg: #1e293b;
    --art-glow: #7dd3fc;
    --art-glow-opacity: 0.18;
    --art-sheen: #ffffff;
    --art-sheen-opacity: 0.18;
    --art-shadow: #000000;
    --art-shadow-opacity: 0.28;
    --art-muted-line: #64748b;
    --art-panel-tint: #1e293b;
    --font-family: 'Inter', 'Segoe UI', 'Kalam', Roboto, Helvetica, Arial, sans-serif;
    --radius-xl: 16px;
    --font-family-headline: 'Inter', 'Segoe UI', 'Kalam', Roboto, Helvetica, Arial, sans-serif;
    --font-family-body: 'Inter', 'Segoe UI', 'Kalam', Roboto, Helvetica, Arial, sans-serif;
    --font-heading: 'Inter', 'Segoe UI', 'Kalam', Roboto, Helvetica, Arial, sans-serif;
    --font-body: 'Inter', 'Segoe UI', 'Kalam', Roboto, Helvetica, Arial, sans-serif;
    --font-size-h1: 56px;
    --font-size-h2: 40px;
    --font-size-h3: 28px;
    --font-size-body: 24px;
    --font-size-caption: 18px;
    --secondary-text: var(--muted-text);
    --panel-border: var(--border);
    --font-weight-normal: 400;
    --font-weight-medium: 500;
    --font-weight-semibold: 600;
    --font-weight-bold: 700;
    --spacing-gutter-pct: 0.07;
    --spacing-top-pct: 0.15;
    --spacing-bottom-pct: 0.07;
    --spacing-title-y-pct: 0.055;
    --accent-1: #a5b4fc;
    --accent-2: #34d399;
    --accent-3: #f472b6;
    --accent-4: #fbbf24;
    --accent-5: #38bdf8;
    --accent-6: #c084fc;
    --accent-7: #f87171;
    --accent-8: #2dd4bf;
    --accent-9: #fb923c;
    --accent-10: #e879f9;
}
:root[data-theme="dark"] {
    --background: #0f172a;
    --panel: #1e293b;
    --primary-text: #f1f5f9;
    --muted-text: #94a3b8;
    --inverse-text: #0f172a;
    --border: #334155;
    --shadow-color: #000000;
    --icon-pad-bg: #1e293b;
    --art-glow: #7dd3fc;
    --art-glow-opacity: 0.18;
    --art-sheen: #ffffff;
    --art-sheen-opacity: 0.18;
    --art-shadow: #000000;
    --art-shadow-opacity: 0.28;
    --art-muted-line: #64748b;
    --art-panel-tint: #1e293b;
    --accent-1: #a5b4fc;
    --accent-2: #34d399;
    --accent-3: #f472b6;
    --accent-4: #fbbf24;
    --accent-5: #38bdf8;
    --accent-6: #c084fc;
    --accent-7: #f87171;
    --accent-8: #2dd4bf;
    --accent-9: #fb923c;
    --accent-10: #e879f9;
}
:root[data-theme="light"] {
    --background: #f8fafc;
    --panel: #ffffff;
    --primary-text: #0f172a;
    --muted-text: #64748b;
    --inverse-text: #ffffff;
    --border: #e2e8f0;
    --shadow-color: #000000;
    --icon-pad-bg: #1e293b;
    --art-glow: #0891b2;
    --art-glow-opacity: 0.10;
    --art-sheen: #ffffff;
    --art-sheen-opacity: 0.34;
    --art-shadow: #0f172a;
    --art-shadow-opacity: 0.14;
    --art-muted-line: #94a3b8;
    --art-panel-tint: #f1f5f9;
    --accent-1: #4f46e5;
    --accent-2: #059669;
    --accent-3: #db2777;
    --accent-4: #d97706;
    --accent-5: #0284c7;
    --accent-6: #7c3aed;
    --accent-7: #dc2626;
    --accent-8: #0d9488;
    --accent-9: #ea580c;
    --accent-10: #c026d3;
}</style>
  <rect x="0" y="0" width="1.92E+3" height="1.08E+3" fill="#252a34" stroke="none" id="programmatic_background"/>
  <line id="HEADER_DECOR" x1="960.0" x2="1080.0" y1="135.0" y2="135.0" stroke="var(--accent-1)" stroke-width="6" stroke-linecap="round"/>
  <defs>
    <pattern id="svg9845a473-napkin-hatch" patternUnits="userSpaceOnUse" width="12" height="12">
      <path d="M -3 12 L 12 -3 M 0 15 L 15 0" fill="none" stroke="var(--primary-text)" stroke-width="1" stroke-opacity="0.04"/>
    </pattern>
    <filter id="svg9845a473-soft-shadow" x="-30%" y="-30%" width="160%" height="160%">
      <feDropShadow dx="0" dy="4" stdDeviation="8" flood-color="#000000" flood-opacity="0.18"/>
    </filter>
    <radialGradient id="svg9845a473-universal-edge-vignette" cx="50%" cy="50%" r="72%">
      <stop offset="0%" stop-color="var(--background)" stop-opacity="0"/>
      <stop offset="72%" stop-color="var(--background)" stop-opacity="0.12"/>
      <stop offset="100%" stop-color="var(--primary-text)" stop-opacity="0.08"/>
    </radialGradient>
    <linearGradient id="svg9845a473-universal-surface-sheen" x1="0%" y1="0%" x2="100%" y2="100%">
      <stop offset="0%" stop-color="var(--art-sheen)" stop-opacity="var(--art-sheen-opacity)"/>
      <stop offset="46%" stop-color="var(--art-sheen)" stop-opacity="0.035"/>
      <stop offset="100%" stop-color="var(--art-panel-tint)" stop-opacity="0.14"/>
    </linearGradient>
    <radialGradient id="svg9845a473-universal-icon-aura" cx="50%" cy="42%" r="64%">
      <stop offset="0%" stop-color="var(--art-glow)" stop-opacity="var(--art-glow-opacity)"/>
      <stop offset="100%" stop-color="var(--background)" stop-opacity="0"/>
    </radialGradient>
    <linearGradient id="svg9845a473-tug-rope-sheen" x1="0%" y1="0%" x2="100%" y2="0%">
      <stop offset="0%" stop-color="var(--background)" stop-opacity="0"/>
      <stop offset="50%" stop-color="var(--inverse-text)" stop-opacity="0.16"/>
      <stop offset="100%" stop-color="var(--background)" stop-opacity="0"/>
    </linearGradient>
    <filter id="svg9845a473-text-glow" x="-20%" y="-20%" width="140%" height="140%">
      <feDropShadow dx="0" dy="0" stdDeviation="2" flood-color="#000000" flood-opacity="0.4"/>
    </filter>
    <filter id="svg9845a473-shadow" x="-30%" y="-30%" width="160%" height="160%">
      <feDropShadow dx="0" dy="2" stdDeviation="3" flood-color="#000000" flood-opacity="0.08"/>
      <feDropShadow dx="0" dy="6" stdDeviation="10" flood-color="#000000" flood-opacity="0.12"/>
    </filter>
    <marker id="svg9845a473-arrowhead" markerWidth="10" markerHeight="7" refX="9" refY="3.5" orient="auto" markerUnits="strokeWidth">
      <polygon points="0 0, 10 3.5, 0 7" fill="var(--muted-text)" opacity="0.6"/>
    </marker>
  </defs>
  <rect id="CANVAS_BG" width="100%" height="100%" fill="var(--background)"/>
  <rect width="100%" height="100%" fill="url(#svg9845a473-napkin-hatch)"/>
  <rect id="UNIVERSAL_EDGE_VIGNETTE" width="100%" height="100%" fill="url(#svg9845a473-universal-edge-vignette)" opacity="0.62"/>
  <text id="TITLE" x="960.0" y="59" text-anchor="middle" font-size="56" font-weight="800" fill="#f1f5f9" style="font-size: 60px; font-family: Inter, Segoe UI, Kalam, Roboto, Helvetica, Arial, sans-serif; font-weight: 700; letter-spacing:-1.2px;" data-final-font-size="60">
    <tspan x="960.0" dy="68.00px">The Phase 2 Wall</tspan>
  </text>
  <rect id="TITLE_FRAME" x="134" y="59" width="1652" height="103" fill="none"/>
  <ellipse cx="960" cy="332" rx="214" ry="60" fill="var(--panel)" fill-opacity="0.50" opacity="0.34"/>
  <path d="M 182 320 Q 616 302 934 332" fill="none" stroke="var(--primary-text)" stroke-width="16" stroke-linecap="round" opacity="0.10"/>
  <path d="M 1738 320 Q 1304 302 986 332" fill="none" stroke="var(--primary-text)" stroke-width="16" stroke-linecap="round" opacity="0.10"/>
  <path d="M 220 320 Q 618 306 936 332" fill="none" stroke="var(--muted-text)" stroke-width="8" stroke-linecap="round" opacity="0.88"/>
  <path d="M 1700 320 Q 1302 306 984 332" fill="none" stroke="var(--muted-text)" stroke-width="8" stroke-linecap="round" opacity="0.88"/>
  <circle cx="960" cy="332" r="24" fill="var(--panel)" fill-opacity="0.94" stroke="var(--primary-text)" stroke-width="3"/>
  <path d="M 960 308 L 982 332 L 960 356 L 938 332 Z" fill="var(--primary-text)"/>
  <path d="M 960 356 L 960 666" fill="none" stroke="var(--primary-text)" stroke-width="12" stroke-linecap="round" opacity="0.10"/>
  <path d="M 960 356 L 960 666" fill="none" stroke="var(--muted-text)" stroke-width="6" stroke-linecap="round" opacity="0.78"/>
  <ellipse cx="960" cy="690" rx="106" ry="36" fill="var(--panel)" fill-opacity="0.46" opacity="0.3"/>
  <path d="M 542 690 Q 746 678 928 690" fill="none" stroke="var(--primary-text)" stroke-width="14" stroke-linecap="round" opacity="0.10"/>
  <path d="M 1378 690 Q 1174 678 992 690" fill="none" stroke="var(--primary-text)" stroke-width="14" stroke-linecap="round" opacity="0.10"/>
  <path d="M 564 690 Q 752 680 928 690" fill="none" stroke="var(--muted-text)" stroke-width="7" stroke-linecap="round" opacity="0.86"/>
  <path d="M 1356 690 Q 1168 680 992 690" fill="none" stroke="var(--muted-text)" stroke-width="7" stroke-linecap="round" opacity="0.86"/>
  <circle cx="960" cy="690" r="18" fill="var(--panel)" fill-opacity="0.94" stroke="var(--primary-text)" stroke-width="3"/>
  <path d="M 818 336 L 530 360" fill="none" stroke="var(--muted-text)" stroke-width="3" stroke-linecap="round" opacity="0.72"/>
  <circle cx="530" cy="360" r="6" fill="var(--accent-1)"/>
  <g transform="translate(410, 390)" filter="url(#svg9845a473-soft-shadow)">
    <path d="M 62 0 L 96 -30 L 146 -30 Q 156 -30 162 -18 L 174 0 Z" fill="var(--panel)" fill-opacity="0.95" stroke="var(--accent-1)" stroke-width="3"/>
    <rect id="ITEM_1_BG" x="-228" y="0" width="456" height="348" rx="24" fill="var(--panel)" fill-opacity="0.96" stroke="var(--accent-1)" stroke-width="3"/>
    <rect x="-184" y="14" width="344" height="8" rx="4" fill="var(--accent-1)" fill-opacity="0.42"/>
    <path d="M 76 28 L 184 28 L 160 322 L 84 322 Z" fill="var(--accent-1)" fill-opacity="0.07"/>
    <circle cx="0" cy="80" r="61" fill="url(#svg9845a473-universal-icon-aura)" opacity="0.82"/>
    <circle id="ITEM_1_PAD" cx="0" cy="80" r="44" fill="var(--icon-pad-bg)" stroke="var(--primary-text)" opacity="0.92" fill-opacity="0.9" stroke-width="2"/>
    <circle id="ITEM_1_PAD_INNER" cx="0" cy="80" r="34.32" fill="var(--accent-8)" fill-opacity="0.22"/>
    <circle cx="0" cy="80" r="34" fill="none" stroke="var(--accent-1)" stroke-width="2.5" stroke-dasharray="5 4" opacity="0.82"/>
    <g id="ITEM_1_ICON" transform="translate(-33, 46)" data-icon-size="66" stroke-dasharray="5 4">
      <g transform="translate(-1.3199999999999996,-1.3200000000000003) scale(2.86)" vector-effect="non-scaling-stroke" stroke-width="2.50" stroke-linecap="round" stroke-linejoin="round" stroke-opacity="1.0">
        <path fill="none" d="M16.1952 8.05092c-0.1789 -0.9786 -0.609 -1.89392 -1.2482 -2.65625 -0.1897 -0.22968 -0.3894 -0.4993 -0.6191 -0.72898 -0.1672 -0.17504 -0.3631 -0.32026 -0.5792 -0.42939 -0.0751 -0.03803 -0.1616 -0.04682 -0.2428 -0.02468s-0.1512 0.07364 -0.1966 0.14451h-0.1298c-0.9986 0.57918 -1.9972 1.19831 -2.9159 1.85738 -0.46933 0.32954 -0.93867 0.65907 -1.39802 0.99859L7.52747 8.34051c-0.68903 0.60914 -1.418 1.22827 -2.08706 1.89729 -0.30956 0.3096 -0.59915 0.6291 -0.87876 0.9986 -0.1547 -0.5346 -0.20221 -1.0946 -0.1398 -1.64765 0.28862 -1.67274 1.08327 -3.21674 2.27679 -4.42376 0.32935 -0.3211 0.71532 -0.57841 1.13839 -0.75893 0.59833 -0.21847 1.23041 -0.33002 1.86737 -0.32953 1.0089 -0.00223 2.0145 0.11509 2.9958 0.3495 0.069 0.00477 0.1376 -0.01451 0.194 -0.05456 0.0564 -0.04004 0.0972 -0.09839 0.1155 -0.16513 0.0184 -0.07804 0.0058 -0.16017 -0.0352 -0.22908 -0.041 -0.06892 -0.1071 -0.11925 -0.1845 -0.1404 -1.0143 -0.27385 -2.0559 -0.43461 -3.10557 -0.47932 -0.72843 -0.02631 -1.45565 0.07854 -2.14697 0.30956 -2.127 0.74895 -3.92447 3.79465 -4.20407 5.79183 -0.12584 1.06047 0.04348 2.13517 0.48931 3.10567 0.44242 0.955 1.11493 1.7854 1.95724 2.4165 0.47792 0.3465 1.01643 0.6005 1.58776 0.749 0.53703 0.1498 1.09034 0.2337 1.64767 0.2496 1.55563 0.031 3.08183 -0.4265 4.36383 -1.3081 1.2904 -0.8722 2.2229 -2.1805 2.6263 -3.6848 0.2708 -0.9541 0.3355 -1.95488 0.1897 -2.93588ZM4.8812 12.0453c-0.02753 -0.0548 -0.0509 -0.1115 -0.0699 -0.1698 0.37992 -0.3657 0.78356 -0.706 1.2083 -1.0185 0.72897 -0.5792 1.49788 -1.09849 2.23684 -1.62774 0.73896 -0.52926 1.25823 -0.99859 1.86736 -1.4879 0.6091 -0.48931 1.2083 -0.9986 1.8274 -1.52785 0.6192 -0.52925 1.0585 -0.83882 1.5978 -1.21828 0.0847 0.06414 0.1648 0.13422 0.2396 0.2097 0.1998 0.21969 0.3795 0.47933 0.5493 0.69902 0.4793 0.5818 0.8207 1.2646 0.9986 1.99718 -1.0586 0.64908 -2.137 1.23825 -3.1955 1.87735 -0.7845 0.46302 -1.5444 0.96632 -2.27683 1.50792 -1.15599 0.8863 -2.21685 1.8903 -3.16553 2.9957l-0.21969 -0.1298c-0.69787 -0.5438 -1.24738 -1.2547 -1.59775 -2.0671v-0.0399Zm10.2655 -1.3481c-0.3753 1.2769 -1.2023 2.3736 -2.3267 3.0856 -1.1145 0.7131 -2.4231 1.062 -3.74471 0.9986 -0.47267 -0.0061 -0.94256 -0.0732 -1.39803 -0.1997 -0.12982 0 -0.24965 -0.0899 -0.36948 -0.1298 0.44937 -0.3895 0.89873 -0.749 1.36807 -1.0985 0.46934 -0.3495 0.99859 -0.659 1.46795 -0.9986l1.4779 -0.9985c1.2915 -0.8855 2.5597 -1.79751 3.8046 -2.73618 0.0318 0.71661 -0.0629 1.43318 -0.2796 2.11698v-0.0399Z" vector-effect="non-scaling-stroke" stroke="#f1f5f9"/>
        <path fill="none" d="M23.2453 20.5533c-0.04 -0.2181 -0.1002 -0.4321 -0.1798 -0.6391 -0.136 -0.3547 -0.3172 -0.6903 -0.5392 -0.9986 -0.3034 -0.4388 -0.6371 -0.8559 -0.9986 -1.2482 -0.5285 -0.5741 -1.0957 -1.1113 -1.6976 -1.6078 -0.8288 -0.679 -1.6976 -1.2981 -2.5764 -1.9971 0.2632 -0.5055 0.4804 -1.0335 0.6491 -1.5778 0.248 -0.8172 0.4349 -1.6516 0.5592 -2.4965 0.1568 -0.81258 0.2304 -1.63902 0.2197 -2.46652 -0.0078 -0.57747 -0.1055 -1.1502 -0.2896 -1.6976 -0.1575 -0.4947 -0.3477 -0.97841 -0.5692 -1.44796 -0.1562 -0.33202 -0.347 -0.64665 -0.5692 -0.93868 -0.378 -0.48797 -0.8216 -0.92146 -1.3181 -1.28818 -0.7357 -0.52062 -1.5301 -0.95298 -2.3667 -1.288183 -0.5827 -0.254108 -1.1835 -0.464396 -1.7974 -0.629112 -0.6518 -0.1693231 -1.324 -0.246631 -1.99723 -0.22967613C8.94603 0.0473495 8.12868 0.212165 7.34769 0.491599c-0.7673 0.278516 -1.50628 0.629611 -2.20688 1.048521 -0.60025 0.33964 -1.16553 0.73768 -1.68762 1.18832C1.21634 4.69567 0.756992 8.98961 0.727035 9.45895c-0.106942 1.26975 0.077493 2.54715 0.539235 3.73475 0.12146 0.3013 0.26153 0.5948 0.41941 0.8787 0.22968 0.3995 0.48931 0.7889 0.75893 1.1784 0.5038 0.7726 1.12352 1.463 1.83741 2.0471 0.49826 0.396 1.06292 0.7003 1.66765 0.8987 0.69046 0.2254 1.39861 0.3924 2.11701 0.4993 0.49142 0.0823 0.99015 0.1124 1.4879 0.0899 0.77442 -0.05 1.53942 -0.1977 2.27682 -0.4394 0.7156 -0.2507 1.4101 -0.5579 2.077 -0.9187 0.1352 0.1597 0.2618 0.3264 0.3795 0.4993 0.4294 0.6591 0.7689 1.3681 1.1684 1.9972 0.2809 0.4341 0.5877 0.851 0.9187 1.2482 0.3126 0.3904 0.6459 0.7638 0.9986 1.1184 0.971 0.9019 2.1935 1.4871 3.505 1.6777 0.262 0.0471 0.5307 0.0413 0.7904 -0.0169 0.2597 -0.0582 0.5051 -0.1678 0.7219 -0.3222 0.2168 -0.1544 0.4005 -0.3506 0.5403 -0.5771 0.1399 -0.2264 0.2331 -0.4785 0.2741 -0.7415 0.0405 -0.1745 0.0705 -0.3512 0.0899 -0.5292 0.0097 -0.1763 0.0097 -0.353 0 -0.5293 0.0036 -0.234 -0.0131 -0.4679 -0.0499 -0.699Zm-1.1584 1.4679c-0.0509 0.2532 -0.1979 0.4768 -0.4102 0.6239 -0.2123 0.1471 -0.4733 0.2062 -0.7282 0.165 -1.0468 -0.1308 -2.0325 -0.5647 -2.836 -1.2482 -0.3522 -0.313 -0.6856 -0.6464 -0.9986 -0.9986 -0.3312 -0.341 -0.6382 -0.7047 -0.9187 -1.0885 -0.4394 -0.6191 -0.8388 -1.3081 -1.2982 -1.9372 -0.1219 -0.1597 -0.2518 -0.313 -0.3894 -0.4594l0.1298 -0.0899c0.2213 -0.1586 0.4315 -0.3321 0.6291 -0.5192 0.0618 -0.0665 0.0961 -0.1539 0.0961 -0.2447 0 -0.0908 -0.0343 -0.1782 -0.0961 -0.2447 -0.0636 -0.0634 -0.1498 -0.099 -0.2396 -0.099 -0.0899 0 -0.1761 0.0356 -0.2397 0.099 -0.1708 0.1582 -0.3546 0.3018 -0.5492 0.4294 -0.1917 0.1358 -0.3918 0.2592 -0.5992 0.3695 -0.6446 0.3275 -1.3121 0.6078 -1.9972 0.8388 -0.6936 0.2123 -1.412 0.3332 -2.13695 0.3595 -0.55091 0.0138 -1.10132 -0.0432 -1.63769 -0.1697 -0.5569 -0.1063 -1.10451 -0.2566 -1.63769 -0.4494 -0.62749 -0.2261 -1.19946 -0.5835 -1.67763 -1.0485 -0.49431 -0.4831 -0.93003 -1.0228 -1.29817 -1.6077 -0.22968 -0.3595 -0.46934 -0.719 -0.67904 -1.1185 -0.13067 -0.2462 -0.24735 -0.4996 -0.34951 -0.7589 -0.38354 -1.05 -0.52354 -2.1734 -0.40942 -3.28536 0.45935 -5.29254 3.14556 -6.55076 3.91448 -6.99014 0.63297 -0.38101 1.30193 -0.69877 1.99718 -0.94867 0.6757 -0.25505 1.38606 -0.40655 2.10703 -0.44936 0.56141 -0.01552 1.12241 0.04495 1.66761 0.17975 0.5644 0.13703 1.1183 0.31389 1.6577 0.52925 0.6401 0.2469 1.2581 0.54755 1.8474 0.89873 0.5688 0.32061 1.076 0.7399 1.4979 1.23825 0.1894 0.23504 0.3534 0.48943 0.4893 0.75893 0.2208 0.42872 0.411 0.87254 0.5692 1.32813 0.1632 0.46345 0.2606 0.94748 0.2896 1.43797 0.0241 0.77857 -0.026 1.55767 -0.1498 2.32672 -0.0854 0.6722 -0.2088 1.3389 -0.3695 1.9972 -0.161 0.6599 -0.3954 1.2996 -0.699 1.9073 -0.1609 0.3485 -0.3513 0.6826 -0.5692 0.9986 -0.2144 0.3034 -0.455 0.5874 -0.719 0.8488 -0.0288 0.0275 -0.052 0.0605 -0.0681 0.097 -0.0161 0.0364 -0.0249 0.0757 -0.0258 0.1156 -0.0019 0.0805 0.0283 0.1585 0.0839 0.2168 0.0556 0.0582 0.1321 0.092 0.2127 0.0939 0.0805 0.0019 0.1585 -0.0283 0.2167 -0.0839 0.2935 -0.2844 0.564 -0.5916 0.8089 -0.9187 0.1098 -0.1498 0.1997 -0.3096 0.2996 -0.4694 0.8088 0.6791 1.6177 1.3182 2.3866 1.9972 0.5434 0.4957 1.0506 1.0297 1.5178 1.5978 0.3134 0.3747 0.6035 0.7682 0.8688 1.1783 0.1585 0.2534 0.2859 0.525 0.3795 0.8088 0.0505 0.1638 0.0905 0.3305 0.1198 0.4993 0.0099 0.1597 0.0099 0.3197 0 0.4794l-0.0599 0.8088Z" vector-effect="non-scaling-stroke" stroke="#f1f5f9"/>
      </g>
    </g>
    <text id="ITEM_1_HEAD" x="0.0" y="138.0" text-anchor="middle" font-size="40" font-weight="800" fill="var(--accent-8)" data-bg-id="ITEM_1_BG" data-max-lines="3" data-min-font-size="14" fill-opacity="1.0" stroke="none" style="font-size: 30px; font-family: Inter, Segoe UI, Kalam, Roboto, Helvetica, Arial, sans-serif; font-weight: 700; letter-spacing:-0.4px;" data-final-font-size="30">
      <tspan x="0.0" dy="47.01px">Search Fast</tspan>
    </text>
    <rect id="ITEM_1_HEAD_FRAME" x="-194" y="138" width="388" height="68" fill="none"/>
    <text id="ITEM_1_BODY" x="0.0" y="202.0" text-anchor="middle" font-size="24" fill="var(--primary-text)" data-bg-id="ITEM_1_BG" style="font-size: 26px; font-family: Inter, Segoe UI, Kalam, Roboto, Helvetica, Arial, sans-serif; font-weight: 400;" data-final-font-size="26">
      <tspan x="0.0" dy="42.13px">AI explores chemical</tspan>
      <tspan x="0.0" dy="29.90px">possibilities quickly</tspan>
    </text>
    <rect id="ITEM_1_BODY_FRAME" x="-214" y="202" width="428" height="146" fill="none"/>
  </g>
  <path d="M 960 356 L 960 342" fill="none" stroke="var(--muted-text)" stroke-width="3" stroke-linecap="round" opacity="0.72"/>
  <circle cx="960" cy="342" r="6" fill="var(--accent-2)"/>
  <g transform="translate(960, 372)" filter="url(#svg9845a473-soft-shadow)">
    <path d="M -46 0 L -16 -30 L 16 -30 L 46 0 Z" fill="var(--panel)" fill-opacity="0.95" stroke="var(--accent-2)" stroke-width="3"/>
    <rect id="ITEM_2_BG" x="-228" y="0" width="456" height="348" rx="24" fill="var(--panel)" fill-opacity="0.96" stroke="var(--accent-2)" stroke-width="3"/>
    <rect x="-160" y="14" width="320" height="8" rx="4" fill="var(--accent-2)" fill-opacity="0.42"/>
    <path d="M -70 28 L 70 28 L 104 320 L -104 320 Z" fill="var(--accent-2)" fill-opacity="0.05"/>
    <circle cx="0" cy="80" r="61" fill="url(#svg9845a473-universal-icon-aura)" opacity="0.82"/>
    <circle id="ITEM_2_PAD" cx="0" cy="80" r="44" fill="var(--icon-pad-bg)" stroke="var(--primary-text)" opacity="0.92" fill-opacity="0.9" stroke-width="2"/>
    <circle id="ITEM_2_PAD_INNER" cx="0" cy="80" r="34.32" fill="var(--accent-9)" fill-opacity="0.22"/>
    <circle cx="0" cy="80" r="34" fill="none" stroke="var(--accent-2)" stroke-width="2.5" stroke-dasharray="5 4" opacity="0.82"/>
    <g id="ITEM_2_ICON" transform="translate(-33, 46)" data-icon-size="66" stroke-dasharray="5 4">
      <g transform="translate(-4.228474576271187,-4.228474576271187) scale(3.102372881355932)" vector-effect="non-scaling-stroke" stroke-width="2.50" stroke-linecap="round" stroke-linejoin="round" stroke-opacity="1.0">
        <path d="m2 2 20 20" vector-effect="non-scaling-stroke" fill="none" stroke="#f1f5f9"/>
        <path d="M8.35 2.69A10 10 0 0 1 21.3 15.65" vector-effect="non-scaling-stroke" fill="none" stroke="#f1f5f9"/>
        <path d="M19.08 19.08A10 10 0 1 1 4.92 4.92" vector-effect="non-scaling-stroke" fill="none" stroke="#f1f5f9"/>
      </g>
    </g>
    <text id="ITEM_2_HEAD" x="0.0" y="138.0" text-anchor="middle" font-size="40" font-weight="800" fill="var(--accent-9)" data-bg-id="ITEM_2_BG" data-max-lines="3" data-min-font-size="14" fill-opacity="1.0" stroke="none" style="font-size: 30px; font-family: Inter, Segoe UI, Kalam, Roboto, Helvetica, Arial, sans-serif; font-weight: 700; letter-spacing:-0.4px;" data-final-font-size="30">
      <tspan x="0.0" dy="47.01px">Data Gaps</tspan>
    </text>
    <rect id="ITEM_2_HEAD_FRAME" x="-194" y="138" width="388" height="68" fill="none"/>
    <text id="ITEM_2_BODY" x="0.0" y="202.0" text-anchor="middle" font-size="24" fill="var(--primary-text)" data-bg-id="ITEM_2_BG" style="font-size: 26px; font-family: Inter, Segoe UI, Kalam, Roboto, Helvetica, Arial, sans-serif; font-weight: 400;" data-final-font-size="26">
      <tspan x="0.0" dy="42.13px">Training data lacks failed</tspan>
      <tspan x="0.0" dy="29.90px">trial info</tspan>
    </text>
    <rect id="ITEM_2_BODY_FRAME" x="-214" y="202" width="428" height="146" fill="none"/>
  </g>
  <path d="M 1102 336 L 1390 360" fill="none" stroke="var(--muted-text)" stroke-width="3" stroke-linecap="round" opacity="0.72"/>
  <circle cx="1390" cy="360" r="6" fill="var(--accent-3)"/>
  <g transform="translate(1510, 390)" filter="url(#svg9845a473-soft-shadow)">
    <path d="M -62 0 L -96 -30 L -146 -30 Q -156 -30 -162 -18 L -174 0 Z" fill="var(--panel)" fill-opacity="0.95" stroke="var(--accent-3)" stroke-width="3"/>
    <rect id="ITEM_3_BG" x="-228" y="0" width="456" height="348" rx="24" fill="var(--panel)" fill-opacity="0.96" stroke="var(--accent-3)" stroke-width="3"/>
    <rect x="-160" y="14" width="344" height="8" rx="4" fill="var(--accent-3)" fill-opacity="0.42"/>
    <path d="M -76 28 L -184 28 L -160 322 L -84 322 Z" fill="var(--accent-3)" fill-opacity="0.07"/>
    <circle cx="0" cy="80" r="61" fill="url(#svg9845a473-universal-icon-aura)" opacity="0.82"/>
    <circle id="ITEM_3_PAD" cx="0" cy="80" r="44" fill="var(--icon-pad-bg)" stroke="var(--primary-text)" opacity="0.92" fill-opacity="0.9" stroke-width="2"/>
    <circle id="ITEM_3_PAD_INNER" cx="0" cy="80" r="34.32" fill="var(--accent-10)" fill-opacity="0.22"/>
    <circle cx="0" cy="80" r="34" fill="none" stroke="var(--accent-3)" stroke-width="2.5" stroke-dasharray="5 4" opacity="0.82"/>
    <g id="ITEM_3_ICON" transform="translate(-33, 46)" data-icon-size="66" stroke-dasharray="5 4">
      <g transform="translate(-6.179469026548673,-6.179469026548673) scale(2.429734513274336)">
        <path d="M21.415 21.405L15.025 27.795C12.045 30.775 7.215 30.775 4.235 27.795C1.255 24.815 1.255 19.985 4.235 17.005L10.625 10.615L19.2673 13.1999L21.415 21.405Z" fill="#FCD53F"/>
        <path d="M10.6349 10.625L17.0249 4.235C20.0049 1.255 24.8349 1.255 27.8149 4.235C30.7949 7.215 30.7949 12.045 27.8149 15.025L21.4249 21.415L10.6349 10.625Z" fill="#F8312F"/>
        <path d="M26 12C27.1046 12 28 11.1046 28 10C28 8.89543 27.1046 8 26 8C24.8954 8 24 8.89543 24 10C24 11.1046 24.8954 12 26 12Z" fill="#F4F4F4"/>
      </g>
    </g>
    <text id="ITEM_3_HEAD" x="0.0" y="138.0" text-anchor="middle" font-size="40" font-weight="800" fill="var(--accent-10)" data-bg-id="ITEM_3_BG" data-max-lines="3" data-min-font-size="14" fill-opacity="1.0" stroke="none" style="font-size: 30px; font-family: Inter, Segoe UI, Kalam, Roboto, Helvetica, Arial, sans-serif; font-weight: 700; letter-spacing:-0.4px;" data-final-font-size="30">
      <tspan x="0.0" dy="47.01px">Reality Check</tspan>
    </text>
    <rect id="ITEM_3_HEAD_FRAME" x="-194" y="138" width="388" height="68" fill="none"/>
    <text id="ITEM_3_BODY" x="0.0" y="202.0" text-anchor="middle" font-size="24" fill="var(--primary-text)" data-bg-id="ITEM_3_BG" style="font-size: 26px; font-family: Inter, Segoe UI, Kalam, Roboto, Helvetica, Arial, sans-serif; font-weight: 400;" data-final-font-size="26">
      <tspan x="0.0" dy="42.13px">Models fail against</tspan>
      <tspan x="0.0" dy="29.90px">biological complexity</tspan>
    </text>
    <rect id="ITEM_3_BODY_FRAME" x="-214" y="202" width="428" height="146" fill="none"/>
  </g>
  <path d="M 930 690 L 810 696" fill="none" stroke="var(--muted-text)" stroke-width="3" stroke-linecap="round" opacity="0.72"/>
  <circle cx="810" cy="696" r="6" fill="var(--accent-4)"/>
  <g transform="translate(690, 726)" filter="url(#svg9845a473-soft-shadow)">
    <path d="M 62 0 L 96 -30 L 146 -30 Q 156 -30 162 -18 L 174 0 Z" fill="var(--panel)" fill-opacity="0.95" stroke="var(--accent-4)" stroke-width="3"/>
    <rect id="ITEM_4_BG" x="-228" y="0" width="456" height="348" rx="24" fill="var(--panel)" fill-opacity="0.96" stroke="var(--accent-4)" stroke-width="3"/>
    <rect x="-184" y="14" width="344" height="8" rx="4" fill="var(--accent-4)" fill-opacity="0.42"/>
    <path d="M 76 28 L 184 28 L 160 322 L 84 322 Z" fill="var(--accent-4)" fill-opacity="0.07"/>
    <circle cx="0" cy="80" r="61" fill="url(#svg9845a473-universal-icon-aura)" opacity="0.82"/>
    <circle id="ITEM_4_PAD" cx="0" cy="80" r="44" fill="var(--icon-pad-bg)" stroke="var(--primary-text)" opacity="0.92" fill-opacity="0.9" stroke-width="2"/>
    <circle id="ITEM_4_PAD_INNER" cx="0" cy="80" r="34.32" fill="var(--accent-1)" fill-opacity="0.22"/>
    <circle cx="0" cy="80" r="34" fill="none" stroke="var(--accent-4)" stroke-width="2.5" stroke-dasharray="5 4" opacity="0.82"/>
    <g id="ITEM_4_ICON" transform="translate(-33, 46)" data-icon-size="66" stroke-dasharray="5 4">
      <g transform="translate(-12.760000000000002,-12.760000000000002) scale(3.8133333333333335)" vector-effect="non-scaling-stroke" stroke-width="2.50" stroke-linecap="round" stroke-linejoin="round" stroke-opacity="1.0">
        <path d="M4 18v-12a2 2 0 0 1 2 -2h12a2 2 0 0 1 2 2v12a2 2 0 0 1 -2 2h-12a2 2 0 0 1 -2 -2z" vector-effect="non-scaling-stroke" fill="none" stroke="#f1f5f9"/>
        <path d="M7 14l3 -3l2 2l3 -3l2 2" vector-effect="non-scaling-stroke" fill="none" stroke="#f1f5f9"/>
      </g>
    </g>
    <text id="ITEM_4_HEAD" x="0.0" y="138.0" text-anchor="middle" font-size="40" font-weight="800" fill="var(--accent-1)" data-bg-id="ITEM_4_BG" data-max-lines="3" data-min-font-size="14" fill-opacity="1.0" stroke="none" style="font-size: 30px; font-family: Inter, Segoe UI, Kalam, Roboto, Helvetica, Arial, sans-serif; font-weight: 700; letter-spacing:-0.4px;" data-final-font-size="30">
      <tspan x="0.0" dy="47.01px">Outcome Gap</tspan>
    </text>
    <rect id="ITEM_4_HEAD_FRAME" x="-194" y="138" width="388" height="68" fill="none"/>
    <text id="ITEM_4_BODY" x="0.0" y="202.0" text-anchor="middle" font-size="24" fill="var(--primary-text)" data-bg-id="ITEM_4_BG" style="font-size: 26px; font-family: Inter, Segoe UI, Kalam, Roboto, Helvetica, Arial, sans-serif; font-weight: 400;" data-final-font-size="26">
      <tspan x="0.0" dy="42.13px">Search efficiency does not</tspan>
      <tspan x="0.0" dy="29.90px">fix failure</tspan>
    </text>
    <rect id="ITEM_4_BODY_FRAME" x="-214" y="202" width="428" height="146" fill="none"/>
  </g>
  <path d="M 990 690 L 1110 696" fill="none" stroke="var(--muted-text)" stroke-width="3" stroke-linecap="round" opacity="0.72"/>
  <circle cx="1110" cy="696" r="6" fill="var(--accent-5)"/>
  <g transform="translate(1230, 726)" filter="url(#svg9845a473-soft-shadow)">
    <path d="M -62 0 L -96 -30 L -146 -30 Q -156 -30 -162 -18 L -174 0 Z" fill="var(--panel)" fill-opacity="0.95" stroke="var(--accent-5)" stroke-width="3"/>
    <rect id="ITEM_5_BG" x="-228" y="0" width="456" height="348" rx="24" fill="var(--panel)" fill-opacity="0.96" stroke="var(--accent-5)" stroke-width="3"/>
    <rect x="-160" y="14" width="344" height="8" rx="4" fill="var(--accent-5)" fill-opacity="0.42"/>
    <path d="M -76 28 L -184 28 L -160 322 L -84 322 Z" fill="var(--accent-5)" fill-opacity="0.07"/>
    <circle cx="0" cy="80" r="61" fill="url(#svg9845a473-universal-icon-aura)" opacity="0.82"/>
    <circle id="ITEM_5_PAD" cx="0" cy="80" r="44" fill="var(--icon-pad-bg)" stroke="var(--primary-text)" opacity="0.92" fill-opacity="0.9" stroke-width="2"/>
    <circle id="ITEM_5_PAD_INNER" cx="0" cy="80" r="34.32" fill="var(--accent-2)" fill-opacity="0.22"/>
    <circle cx="0" cy="80" r="34" fill="none" stroke="var(--accent-5)" stroke-width="2.5" stroke-dasharray="5 4" opacity="0.82"/>
    <g id="ITEM_5_ICON" transform="translate(-33, 46)" data-icon-size="66" stroke-dasharray="5 4">
      <g transform="translate(-6.222857142857143,-6.5292857142857175) scale(2.4514285714285715)">
        <path d="M4.71839 18.0233C5.11525 17.458 5.8952 17.3215 6.46045 17.7184L18.5318 26.1936L17.0946 28.2406L5.02328 19.7653C4.45803 19.3685 4.32152 18.5885 4.71839 18.0233Z" fill="#5092FF"/>
        <path d="M18.5013 2.80347C18.8302 2.3598 19.4615 2.25982 19.9114 2.58017L21.5841 3.77124C22.034 4.09158 22.1321 4.71094 21.8032 5.15461L13.1102 16.8809C12.4436 17.7801 11.1641 17.9827 10.2523 17.3335C9.34053 16.6842 9.14176 15.429 9.80835 14.5298L18.5013 2.80347Z" fill="#636363"/>
        <path d="M18.0472 3.66594C16.8384 3.31432 15.3804 3.86071 14.5971 4.91739L11.7749 8.7243L11.9999 10.0001L10.6024 10.306L10.3989 10.5805C9.07399 12.3677 9.47824 14.8692 11.3018 16.1677C13.1254 17.4662 15.6778 17.07 17.0027 15.2828L17.1623 15.0675L16.9999 13.5001H18.3242L18.4883 13.2787C21.992 13.9302 23.8684 16.851 23.963 19.8545C24.0149 21.5041 23.5209 23.1307 22.4806 24.3899C21.4537 25.6329 19.8112 26.6185 17.3793 26.8486C16.5451 26.9276 15.9304 27.6956 16.0062 28.564C16.082 29.4325 16.8197 30.0725 17.6539 29.9935C20.7829 29.6974 23.1847 28.3804 24.7802 26.4491C26.3624 24.5339 27.069 22.1145 26.9946 19.751C26.8719 15.8564 24.6058 11.9837 20.5048 10.5586L21.2008 9.61967C21.9842 8.56299 22.0639 7.03517 21.3491 6.01708L18.0472 3.66594Z" fill="#BEBEBE"/>
        <path d="M2 29.2C2 27.4327 3.43269 26 5.2 26H26.8C28.5673 26 30 27.4327 30 29.2C30 29.6418 29.6418 30 29.2 30H2.8C2.35817 30 2 29.6418 2 29.2Z" fill="#9B9B9B"/>
        <path d="M11.7757 8.70947L18.3343 13.4746L17.1588 15.0927L10.6001 10.3275L11.7757 8.70947Z" fill="#D3D3D3"/>
      </g>
    </g>
    <text id="ITEM_5_HEAD" x="0.0" y="138.0" text-anchor="middle" font-size="40" font-weight="800" fill="var(--accent-2)" data-bg-id="ITEM_5_BG" data-max-lines="3" data-min-font-size="14" fill-opacity="1.0" stroke="none" style="font-size: 30px; font-family: Inter, Segoe UI, Kalam, Roboto, Helvetica, Arial, sans-serif; font-weight: 700; letter-spacing:-0.4px;" data-final-font-size="30">
      <tspan x="0.0" dy="47.01px">Validation Need</tspan>
    </text>
    <rect id="ITEM_5_HEAD_FRAME" x="-194" y="138" width="388" height="68" fill="none"/>
    <text id="ITEM_5_BODY" x="0.0" y="202.0" text-anchor="middle" font-size="24" fill="var(--primary-text)" data-bg-id="ITEM_5_BG" style="font-size: 26px; font-family: Inter, Segoe UI, Kalam, Roboto, Helvetica, Arial, sans-serif; font-weight: 400;" data-final-font-size="26">
      <tspan x="0.0" dy="42.13px">Deep biology underst and ing</tspan>
      <tspan x="0.0" dy="29.90px">is required</tspan>
    </text>
    <rect id="ITEM_5_BODY_FRAME" x="-214" y="202" width="428" height="146" fill="none"/>
  </g>
</svg>
