<?xml version='1.0' encoding='utf-8'?>
<svg xmlns="http://www.w3.org/2000/svg" width="1920" height="1080" viewBox="0 0 1920 1080" data-theme="light">
  <style>
        @font-face {
            font-family: 'Inter';
            src: url('assets/fonts/Inter-Regular.ttf') format('truetype');
            font-weight: 400;
            font-style: normal;
            font-display: swap;
        }
        @font-face {
            font-family: 'Inter';
            src: url('assets/fonts/Inter-Bold.ttf') format('truetype');
            font-weight: 600;
            font-style: normal;
            font-display: swap;
        }
        @font-face {
            font-family: 'Inter';
            src: url('assets/fonts/Inter-Bold.ttf') format('truetype');
            font-weight: 800;
            font-style: normal;
            font-display: swap;
        }
        
:root {
    --background: #f8fafc;
    --panel: #ffffff;
    --primary-text: #0f172a;
    --muted-text: #64748b;
    --inverse-text: #ffffff;
    --border: #e2e8f0;
    --shadow-color: #000000;
    --icon-pad-bg: #1e293b;
    --art-glow: #0891b2;
    --art-glow-opacity: 0.10;
    --art-sheen: #ffffff;
    --art-sheen-opacity: 0.34;
    --art-shadow: #0f172a;
    --art-shadow-opacity: 0.14;
    --art-muted-line: #94a3b8;
    --art-panel-tint: #f1f5f9;
    --font-family: 'Inter', 'Segoe UI', 'Kalam', Roboto, Helvetica, Arial, sans-serif;
    --radius-xl: 16px;
    --font-family-headline: 'Inter', 'Segoe UI', 'Kalam', Roboto, Helvetica, Arial, sans-serif;
    --font-family-body: 'Inter', 'Segoe UI', 'Kalam', Roboto, Helvetica, Arial, sans-serif;
    --font-heading: 'Inter', 'Segoe UI', 'Kalam', Roboto, Helvetica, Arial, sans-serif;
    --font-body: 'Inter', 'Segoe UI', 'Kalam', Roboto, Helvetica, Arial, sans-serif;
    --font-size-h1: 56px;
    --font-size-h2: 40px;
    --font-size-h3: 28px;
    --font-size-body: 24px;
    --font-size-caption: 18px;
    --secondary-text: var(--muted-text);
    --panel-border: var(--border);
    --font-weight-normal: 400;
    --font-weight-medium: 500;
    --font-weight-semibold: 600;
    --font-weight-bold: 700;
    --spacing-gutter-pct: 0.07;
    --spacing-top-pct: 0.15;
    --spacing-bottom-pct: 0.07;
    --spacing-title-y-pct: 0.055;
    --accent-1: #d97706;
    --accent-2: #ea580c;
    --accent-3: #dc2626;
    --accent-4: #65a30d;
    --accent-5: #16a34a;
    --accent-6: #92400e;
}
:root[data-theme="dark"] {
    --background: #0f172a;
    --panel: #1e293b;
    --primary-text: #f1f5f9;
    --muted-text: #94a3b8;
    --inverse-text: #0f172a;
    --border: #334155;
    --shadow-color: #000000;
    --icon-pad-bg: #1e293b;
    --art-glow: #7dd3fc;
    --art-glow-opacity: 0.18;
    --art-sheen: #ffffff;
    --art-sheen-opacity: 0.18;
    --art-shadow: #000000;
    --art-shadow-opacity: 0.28;
    --art-muted-line: #64748b;
    --art-panel-tint: #1e293b;
    --accent-1: #fbbf24;
    --accent-2: #fb923c;
    --accent-3: #f87171;
    --accent-4: #a3e635;
    --accent-5: #4ade80;
    --accent-6: #d4a574;
}
:root[data-theme="light"] {
    --background: #f8fafc;
    --panel: #ffffff;
    --primary-text: #0f172a;
    --muted-text: #64748b;
    --inverse-text: #ffffff;
    --border: #e2e8f0;
    --shadow-color: #000000;
    --icon-pad-bg: #1e293b;
    --art-glow: #0891b2;
    --art-glow-opacity: 0.10;
    --art-sheen: #ffffff;
    --art-sheen-opacity: 0.34;
    --art-shadow: #0f172a;
    --art-shadow-opacity: 0.14;
    --art-muted-line: #94a3b8;
    --art-panel-tint: #f1f5f9;
    --accent-1: #d97706;
    --accent-2: #ea580c;
    --accent-3: #dc2626;
    --accent-4: #65a30d;
    --accent-5: #16a34a;
    --accent-6: #92400e;
}</style>
  <rect x="0" y="0" width="1.92E+3" height="1.08E+3" fill="#252a34" stroke="none" id="programmatic_background"/>
  <line id="HEADER_DECOR" x1="960.0" x2="1080.0" y1="135.0" y2="135.0" stroke="var(--accent-1)" stroke-width="6" stroke-linecap="round"/>
  <defs>
    <pattern id="svgc2e8a062-napkin-hatch" patternUnits="userSpaceOnUse" width="12" height="12">
      <path d="M -3 12 L 12 -3 M 0 15 L 15 0" fill="none" stroke="var(--primary-text)" stroke-width="1" stroke-opacity="0.05"/>
    </pattern>
    <radialGradient id="svgc2e8a062-universal-edge-vignette" cx="50%" cy="50%" r="72%">
      <stop offset="0%" stop-color="var(--background)" stop-opacity="0"/>
      <stop offset="72%" stop-color="var(--background)" stop-opacity="0.12"/>
      <stop offset="100%" stop-color="var(--primary-text)" stop-opacity="0.08"/>
    </radialGradient>
    <linearGradient id="svgc2e8a062-universal-surface-sheen" x1="0%" y1="0%" x2="100%" y2="100%">
      <stop offset="0%" stop-color="var(--art-sheen)" stop-opacity="var(--art-sheen-opacity)"/>
      <stop offset="46%" stop-color="var(--art-sheen)" stop-opacity="0.035"/>
      <stop offset="100%" stop-color="var(--art-panel-tint)" stop-opacity="0.14"/>
    </linearGradient>
    <radialGradient id="svgc2e8a062-universal-icon-aura" cx="50%" cy="42%" r="64%">
      <stop offset="0%" stop-color="var(--art-glow)" stop-opacity="var(--art-glow-opacity)"/>
      <stop offset="100%" stop-color="var(--background)" stop-opacity="0"/>
    </radialGradient>
    <filter id="svgc2e8a062-text-glow" x="-20%" y="-20%" width="140%" height="140%">
      <feDropShadow dx="0" dy="0" stdDeviation="2" flood-color="#000000" flood-opacity="0.4"/>
    </filter>
    <filter id="svgc2e8a062-shadow" x="-30%" y="-30%" width="160%" height="160%">
      <feDropShadow dx="0" dy="2" stdDeviation="3" flood-color="#000000" flood-opacity="0.08"/>
      <feDropShadow dx="0" dy="6" stdDeviation="10" flood-color="#000000" flood-opacity="0.12"/>
    </filter>
    <marker id="svgc2e8a062-arrowhead" markerWidth="10" markerHeight="7" refX="9" refY="3.5" orient="auto" markerUnits="strokeWidth">
      <polygon points="0 0, 10 3.5, 0 7" fill="var(--muted-text)" opacity="0.6"/>
    </marker>
  </defs>
  <rect width="100%" height="100%" fill="var(--background)" id="CANVAS_BG"/>
  <rect width="100%" height="100%" fill="url(#svgc2e8a062-napkin-hatch)"/>
  <rect id="UNIVERSAL_EDGE_VIGNETTE" width="100%" height="100%" fill="url(#svgc2e8a062-universal-edge-vignette)" opacity="0.62"/>
  <text id="TITLE" x="960.0" y="59" text-anchor="middle" font-size="63" font-weight="700" fill="#0f172a" style="font-size: 60px; font-family: Inter, Segoe UI, Kalam, Roboto, Helvetica, Arial, sans-serif; font-weight: 700; letter-spacing:-1.2px;" data-final-font-size="60">
    <tspan x="960.0" dy="68.00px">Dawn Expansion</tspan>
  </text>
  <rect id="TITLE_FRAME" x="134" y="59" width="1652" height="103" fill="none"/>
  <g id="DIAGRAM_SCALER" transform="translate(50.3, 32.2) scale(0.95)">
    <line x1="75" y1="675" x2="1845" y2="675" stroke="var(--panel)" stroke-width="3" stroke-linecap="round"/>
    <g transform="translate(270.0, 675.0)">
      <line x1="0" y1="0" x2="0" y2="-150" stroke="var(--accent-1)" stroke-width="2"/>
      <circle id="ITEM_1_NODE" cx="0" cy="-150" r="50" fill="var(--background)" stroke="var(--accent-1)" stroke-width="3"/>
      <g transform="translate(0.0, 45.0)">
        <rect x="-135" y="-15" width="270" height="150" rx="12" fill="var(--panel)" id="ITEM_1_BG" stroke="var(--accent-1)" stroke-width="2"/>
        <text id="ITEM_1_HEAD" text-anchor="middle" font-weight="bold" font-size="27" fill="var(--primary-text)" x="0.0" y="0.0" data-bg-id="ITEM_1_BG" fill-opacity="1.0" style="font-size: 30px; font-family: Inter, Segoe UI, Kalam, Roboto, Helvetica, Arial, sans-serif; font-weight: 700; letter-spacing:-0.4px;" data-final-font-size="30">
          <tspan x="0.0" dy="33.75px">Initial Build</tspan>
        </text>
        <rect id="ITEM_1_HEAD_FRAME" x="-120" y="0" width="240" height="51" fill="none"/>
        <text id="ITEM_1_BODY" text-anchor="middle" font-size="19.5" fill="var(--primary-text)" x="0.0" y="60.0" data-bg-id="ITEM_1_BG" style="font-size: 26px; font-family: Inter, Segoe UI, Kalam, Roboto, Helvetica, Arial, sans-serif; font-weight: 400;" data-final-font-size="26">
          <tspan x="0.0" dy="32.84px">Collaboration with</tspan>
          <tspan x="0.0" dy="29.90px">Cambridge and Dell</tspan>
        </text>
        <rect id="ITEM_1_BODY_FRAME" x="-138" y="60" width="276" height="120" fill="none" data-side-overflow-fix="52.0|52.0"/>
      </g>
      <circle id="ITEM_1_PAD" cx="0" cy="-150" r="50" fill="var(--icon-pad-bg)" stroke="var(--primary-text)" opacity="0.9" fill-opacity="0.9" stroke-width="2"/>
      <circle id="ITEM_1_PAD_INNER" cx="0" cy="-150" r="39.00" fill="var(--accent-2)" fill-opacity="0.22"/>
      <circle cx="0" cy="-150" r="40" fill="none" stroke="var(--accent-1)" stroke-width="3" stroke-dasharray="6 4"/>
      <g id="ITEM_1_ICON" transform="translate(-30.0, -180.0)" data-icon-size="60" stroke-dasharray="6 4">
        <g transform="translate(-14.571428571428571,-11.785714285714285) scale(0.3482142857142857)" vector-effect="non-scaling-stroke" stroke-width="2.43" stroke-linecap="round" stroke-linejoin="round" stroke-opacity="1.0">
          <path d="M24,176V64A24,24,0,0,1,48,40H64V152H48a24,24,0,0,0,0,48H232V64H64" fill="none" stroke="#f1f5f9" vector-effect="non-scaling-stroke"/>
          <line x1="128" y1="96" x2="128" y2="160" fill="none" stroke="#f1f5f9" vector-effect="non-scaling-stroke"/>
          <line x1="168" y1="96" x2="168" y2="160" fill="none" stroke="#f1f5f9" vector-effect="non-scaling-stroke"/>
          <line x1="104" y1="112" x2="192" y2="112" fill="none" stroke="#f1f5f9" vector-effect="non-scaling-stroke"/>
          <line x1="104" y1="144" x2="192" y2="144" fill="none" stroke="#f1f5f9" vector-effect="non-scaling-stroke"/>
        </g>
      </g>
    </g>
    <g transform="translate(615.0, 675.0)">
      <line x1="0" y1="0" x2="0" y2="-270" stroke="var(--accent-2)" stroke-width="2"/>
      <circle id="ITEM_2_NODE" cx="0" cy="-270" r="50" fill="var(--background)" stroke="var(--accent-2)" stroke-width="3"/>
      <g transform="translate(0.0, 45.0)">
        <rect x="-135" y="-15" width="270" height="150" rx="12" fill="var(--panel)" id="ITEM_2_BG" stroke="var(--accent-2)" stroke-width="2"/>
        <text id="ITEM_2_HEAD" text-anchor="middle" font-weight="bold" font-size="27" fill="var(--accent-3)" x="0.0" y="0.0" data-bg-id="ITEM_2_BG" fill-opacity="1.0" style="font-size: 30px; font-family: Inter, Segoe UI, Kalam, Roboto, Helvetica, Arial, sans-serif; font-weight: 700; letter-spacing:-0.4px;" data-final-font-size="30">
          <tspan x="0.0" dy="33.75px">Research Use</tspan>
        </text>
        <rect id="ITEM_2_HEAD_FRAME" x="-120" y="0" width="240" height="51" fill="none"/>
        <text id="ITEM_2_BODY" text-anchor="middle" font-size="19.5" fill="var(--primary-text)" x="0.0" y="60.0" data-bg-id="ITEM_2_BG" style="font-size: 26px; font-family: Inter, Segoe UI, Kalam, Roboto, Helvetica, Arial, sans-serif; font-weight: 400;" data-final-font-size="26">
          <tspan x="0.0" dy="26.86px">Supports</tspan>
          <tspan x="0.0" dy="29.90px">experimentation and</tspan>
          <tspan x="0.0" dy="29.90px">model dev</tspan>
        </text>
        <rect id="ITEM_2_BODY_FRAME" x="-138" y="60" width="276" height="120" fill="none" data-side-overflow-fix="52.0|52.0"/>
      </g>
      <circle id="ITEM_2_PAD" cx="0" cy="-270" r="50" fill="var(--icon-pad-bg)" stroke="var(--primary-text)" opacity="0.9" fill-opacity="0.9" stroke-width="2"/>
      <circle id="ITEM_2_PAD_INNER" cx="0" cy="-270" r="39.00" fill="var(--accent-3)" fill-opacity="0.22"/>
      <circle cx="0" cy="-270" r="40" fill="none" stroke="var(--accent-2)" stroke-width="3" stroke-dasharray="6 4"/>
      <g id="ITEM_2_ICON" transform="translate(-30.0, -300.0)" data-icon-size="60" stroke-dasharray="6 4">
        <g transform="translate(-17.587155963302752,-14.724770642201836) scale(2.8623853211009176)">
          <path d="M12.3136 12.7574L20.4999 11L25.7487 13.4646L11.6065 27.6067C9.6539 29.5593 6.48807 29.5593 4.53545 27.6067C2.58283 25.6541 2.58283 22.4882 4.53545 20.5356L5.59212 19.479L6.64879 19.5664V18.4223L9.84605 15.225L10.8949 15.1953V14.1762L12.3136 12.7574Z" fill="#C3EF3C"/>
          <path d="M21.8596 2.50428C21.2738 1.91849 20.3241 1.91849 19.7383 2.50428C19.1525 3.09007 19.1525 4.03982 19.7383 4.6256L20.0918 4.97916L15.1174 9.95364L15.5 11L14.1038 10.9672L12.3136 12.7574L25.7486 13.4645L27.1629 12.0502L27.5165 12.4038C28.1023 12.9896 29.052 12.9896 29.6378 12.4038C30.2236 11.818 30.2236 10.8682 29.6378 10.2825L21.8596 2.50428Z" fill="#AEDDFF"/>
          <path d="M15.1421 9.92896L17.4402 12.2271C17.7331 12.5199 17.7331 12.9948 17.4402 13.2877C17.1473 13.5806 16.6724 13.5806 16.3795 13.2877L14.0814 10.9896L15.1421 9.92896Z" fill="#008463"/>
          <path d="M10.8994 14.1716L13.1975 16.4697C13.4904 16.7626 13.4904 17.2375 13.1975 17.5304C12.9046 17.8233 12.4297 17.8233 12.1368 17.5304L9.83875 15.2323L10.8994 14.1716Z" fill="#008463"/>
          <path d="M8.95495 20.7123L6.65685 18.4142L5.59619 19.4748L7.89429 21.7729C8.18718 22.0658 8.66206 22.0658 8.95495 21.7729C9.24784 21.48 9.24784 21.0052 8.95495 20.7123Z" fill="#008463"/>
        </g>
      </g>
    </g>
    <g transform="translate(960.0, 675.0)">
      <line x1="0" y1="0" x2="0" y2="-150" stroke="var(--accent-3)" stroke-width="2"/>
      <circle id="ITEM_3_NODE" cx="0" cy="-150" r="50" fill="var(--background)" stroke="var(--accent-3)" stroke-width="3"/>
      <g transform="translate(0.0, 45.0)">
        <rect x="-135" y="-15" width="270" height="150" rx="12" fill="var(--panel)" id="ITEM_3_BG" stroke="var(--accent-3)" stroke-width="2"/>
        <text id="ITEM_3_HEAD" text-anchor="middle" font-weight="bold" font-size="27" fill="var(--primary-text)" x="0.0" y="0.0" data-bg-id="ITEM_3_BG" fill-opacity="1.0" style="font-size: 30px; font-family: Inter, Segoe UI, Kalam, Roboto, Helvetica, Arial, sans-serif; font-weight: 700; letter-spacing:-0.4px;" data-final-font-size="30">
          <tspan x="0.0" dy="33.75px">Funding Boost</tspan>
        </text>
        <rect id="ITEM_3_HEAD_FRAME" x="-120" y="0" width="240" height="51" fill="none"/>
        <text id="ITEM_3_BODY" text-anchor="middle" font-size="19.5" fill="var(--primary-text)" x="0.0" y="60.0" data-bg-id="ITEM_3_BG" style="font-size: 26px; font-family: Inter, Segoe UI, Kalam, Roboto, Helvetica, Arial, sans-serif; font-weight: 400;" data-final-font-size="26">
          <tspan x="0.0" dy="32.84px">Government adds £36</tspan>
          <tspan x="0.0" dy="29.90px">million investment</tspan>
        </text>
        <rect id="ITEM_3_BODY_FRAME" x="-138" y="60" width="276" height="120" fill="none" data-side-overflow-fix="52.0|52.0"/>
      </g>
      <circle id="ITEM_3_PAD" cx="0" cy="-150" r="50" fill="var(--icon-pad-bg)" stroke="var(--primary-text)" opacity="0.9" fill-opacity="0.9" stroke-width="2"/>
      <circle id="ITEM_3_PAD_INNER" cx="0" cy="-150" r="39.00" fill="var(--accent-4)" fill-opacity="0.22"/>
      <circle cx="0" cy="-150" r="40" fill="none" stroke="var(--accent-3)" stroke-width="3" stroke-dasharray="6 4"/>
      <g id="ITEM_3_ICON" transform="translate(-30.0, -180.0)" data-icon-size="60" stroke-dasharray="6 4">
        <g transform="translate(-14.223214285714281,-14.571428571428571) scale(2.7857142857142856)">
          <path fill-rule="evenodd" clip-rule="evenodd" d="M17.44 3.385C17.77 3.765 18.33 3.835 18.74 3.545C19.54 2.975 20.58 3.835 20.17 4.715L17.75 7.485H13.88L11.44 4.685C11.03 3.795 12.07 2.935 12.87 3.505L12.94 3.555C13.35 3.845 13.91 3.765 14.23 3.385L15.1 2.345C15.48 1.885 16.19 1.885 16.57 2.345L17.44 3.385ZM4 21.2249C4 14.6849 9.3 9.38489 15.84 9.38489C22.38 9.38489 27.68 14.6849 27.67 21.2249C27.67 26.0549 23.75 29.9749 18.92 29.9749H12.75C7.92 29.9749 4 26.0549 4 21.2249Z" fill="#F3C07B"/>
          <path fill-rule="evenodd" clip-rule="evenodd" d="M14.12 7.46484H17.56C18.17 7.46484 18.67 7.96484 18.67 8.57484C18.67 9.18484 18.17 9.68484 17.56 9.68484H14.12C13.51 9.68484 13.01 9.18484 13.01 8.57484C13.01 7.96484 13.51 7.46484 14.12 7.46484ZM15.8401 19.3449H15.9101C17.4101 19.3849 18.6101 20.6049 18.6101 22.1049C18.6101 23.3849 17.7401 24.4549 16.5601 24.7749V25.8949C16.5601 26.2949 16.2401 26.6149 15.8401 26.6149C15.4401 26.6149 15.1201 26.2949 15.1201 25.8949V24.7749C13.9401 24.4549 13.0701 23.3849 13.0701 22.1049C13.0701 21.7049 13.3901 21.3849 13.7901 21.3849C14.1901 21.3849 14.5101 21.7049 14.5101 22.1049C14.5101 22.8449 15.1001 23.4349 15.8301 23.4349C16.5601 23.4349 17.1601 22.8349 17.1601 22.1049C17.1601 21.3749 16.5601 20.7749 15.8301 20.7749H15.7601C14.2701 20.7349 13.0701 19.5149 13.0701 18.0149C13.0701 16.7349 13.9401 15.6649 15.1201 15.3449V14.2249C15.1201 13.8249 15.4401 13.5049 15.8401 13.5049C16.2401 13.5049 16.5601 13.8249 16.5601 14.2249V15.3449C17.7401 15.6649 18.6101 16.7349 18.6101 18.0149C18.6101 18.4149 18.2901 18.7349 17.8901 18.7349C17.4901 18.7349 17.1701 18.4149 17.1701 18.0149C17.1701 17.2849 16.5701 16.6849 15.8401 16.6849C15.1101 16.6849 14.5101 17.2849 14.5101 18.0149C14.5101 18.7449 15.1101 19.3449 15.8401 19.3449Z" fill="#8C5543"/>
        </g>
      </g>
    </g>
    <g transform="translate(1305.0, 675.0)">
      <line x1="0" y1="0" x2="0" y2="-270" stroke="var(--accent-4)" stroke-width="2"/>
      <circle id="ITEM_4_NODE" cx="0" cy="-270" r="50" fill="var(--background)" stroke="var(--accent-4)" stroke-width="3"/>
      <g transform="translate(0.0, 45.0)">
        <rect x="-135" y="-15" width="270" height="150" rx="12" fill="var(--panel)" id="ITEM_4_BG" stroke="var(--accent-4)" stroke-width="2"/>
        <text id="ITEM_4_HEAD" text-anchor="middle" font-weight="bold" font-size="27" fill="var(--primary-text)" x="0.0" y="0.0" data-bg-id="ITEM_4_BG" fill-opacity="1.0" style="font-size: 30px; font-family: Inter, Segoe UI, Kalam, Roboto, Helvetica, Arial, sans-serif; font-weight: 700; letter-spacing:-0.4px;" data-final-font-size="30">
          <tspan x="0.0" dy="33.75px">Capacity Jump</tspan>
        </text>
        <rect id="ITEM_4_HEAD_FRAME" x="-120" y="0" width="240" height="51" fill="none"/>
        <text id="ITEM_4_BODY" text-anchor="middle" font-size="19.5" fill="var(--primary-text)" x="0.0" y="60.0" data-bg-id="ITEM_4_BG" style="font-size: 26px; font-family: Inter, Segoe UI, Kalam, Roboto, Helvetica, Arial, sans-serif; font-weight: 400;" data-final-font-size="26">
          <tspan x="0.0" dy="26.86px">Compute power</tspan>
          <tspan x="0.0" dy="29.90px">increases sixfold</tspan>
          <tspan x="0.0" dy="29.90px">in 2026</tspan>
        </text>
        <rect id="ITEM_4_BODY_FRAME" x="-138" y="60" width="276" height="120" fill="none" data-side-overflow-fix="52.0|52.0"/>
      </g>
      <circle id="ITEM_4_PAD" cx="0" cy="-270" r="50" fill="var(--icon-pad-bg)" stroke="var(--primary-text)" opacity="0.9" fill-opacity="0.9" stroke-width="2"/>
      <circle id="ITEM_4_PAD_INNER" cx="0" cy="-270" r="39.00" fill="var(--accent-5)" fill-opacity="0.22"/>
      <circle cx="0" cy="-270" r="40" fill="none" stroke="var(--accent-4)" stroke-width="3" stroke-dasharray="6 4"/>
      <g id="ITEM_4_ICON" transform="translate(-30.0, -300.0)" data-icon-size="60" stroke-dasharray="6 4">
        <g transform="translate(-14.571428571428571,-14.571428571428571) scale(2.7857142857142856)">
          <path d="M2 6C2 3.79086 3.79086 2 6 2H26C28.2091 2 30 3.79086 30 6V26C30 27.4806 29.1956 28.7733 28 29.4649L26.5537 28.9997C25.5578 28.6794 24.4759 28.762 23.5402 29.2299L22 30H19L16 28.5L13 30H10L8.45982 29.2299C7.52406 28.762 6.44223 28.6794 5.44626 28.9997L4 29.4649C2.8044 28.7733 2 27.4806 2 26V6Z" fill="#E1D8EC"/>
          <path d="M10 11V21H2V22H10V30H11V22H21V30H22V22H30V21H22V11H30V10H22V2H21V10H11V2H10V10H2V11H10ZM11 11H21V21H11V11Z" fill="#B4ACBC"/>
          <path d="M6 30H10V10.2135C10 9.54155 9.4527 9 8.77365 9H5.22635C4.5473 9 4 9.54155 4 10.2135V29.4649C4.58835 29.8052 5.27143 30 6 30Z" fill="#00D26A"/>
          <path d="M17.7736 17H14.2264C13.5473 17 13 17.5417 13 18.2137V30H19V18.2137C19 17.5417 18.4527 17 17.7736 17Z" fill="#F70A8D"/>
          <path d="M22 30H26C26.7286 30 27.4117 29.8052 28 29.4649V7.20899C28 6.53955 27.4527 6 26.7736 6H23.2264C22.5473 6 22 6.53955 22 7.20899V30Z" fill="#00A6ED"/>
        </g>
      </g>
    </g>
    <g transform="translate(1650.0, 675.0)">
      <line x1="0" y1="0" x2="0" y2="-150" stroke="var(--primary-text)" stroke-width="2"/>
      <circle id="ITEM_5_NODE" cx="0" cy="-150" r="50" fill="var(--background)" stroke="var(--primary-text)" stroke-width="3"/>
      <g transform="translate(0.0, 45.0)">
        <rect x="-135" y="-15" width="270" height="150" rx="12" fill="var(--panel)" id="ITEM_5_BG" stroke="var(--accent-5)" stroke-width="2"/>
        <text id="ITEM_5_HEAD" text-anchor="middle" font-weight="bold" font-size="27" fill="var(--accent-6)" x="0.0" y="0.0" data-bg-id="ITEM_5_BG" fill-opacity="1.0" style="font-size: 30px; font-family: Inter, Segoe UI, Kalam, Roboto, Helvetica, Arial, sans-serif; font-weight: 700; letter-spacing:-0.4px;" data-final-font-size="30">
          <tspan x="0.0" dy="33.75px">National Asset</tspan>
        </text>
        <rect id="ITEM_5_HEAD_FRAME" x="-120" y="0" width="240" height="51" fill="none"/>
        <text id="ITEM_5_BODY" text-anchor="middle" font-size="19.5" fill="var(--primary-text)" x="0.0" y="60.0" data-bg-id="ITEM_5_BG" style="font-size: 26px; font-family: Inter, Segoe UI, Kalam, Roboto, Helvetica, Arial, sans-serif; font-weight: 400;" data-final-font-size="26">
          <tspan x="0.0" dy="32.84px">Facility serves as</tspan>
          <tspan x="0.0" dy="29.90px">key national resource</tspan>
        </text>
        <rect id="ITEM_5_BODY_FRAME" x="-138" y="60" width="276" height="120" fill="none" data-side-overflow-fix="52.0|52.0"/>
      </g>
      <circle id="ITEM_5_PAD" cx="0" cy="-150" r="50" fill="var(--icon-pad-bg)" stroke="var(--primary-text)" opacity="0.9" fill-opacity="0.9" stroke-width="2"/>
      <circle id="ITEM_5_PAD_INNER" cx="0" cy="-150" r="39.00" fill="var(--accent-6)" fill-opacity="0.22"/>
      <circle cx="0" cy="-150" r="40" fill="none" stroke="var(--accent-5)" stroke-width="3" stroke-dasharray="6 4"/>
      <g id="ITEM_5_ICON" transform="translate(-30.0, -180.0)" data-icon-size="60" stroke-dasharray="6 4">
        <g transform="translate(-12.305084745762713,-12.305084745762713) scale(3.5254237288135593)" vector-effect="non-scaling-stroke" stroke-width="2.43" stroke-linecap="round" stroke-linejoin="round" stroke-opacity="1.0">
          <path d="M4 22V4a1 1 0 0 1 .4-.8A6 6 0 0 1 8 2c3 0 5 2 7.333 2q2 0 3.067-.8A1 1 0 0 1 20 4v10a1 1 0 0 1-.4.8A6 6 0 0 1 16 16c-3 0-5-2-8-2a6 6 0 0 0-4 1.528" vector-effect="non-scaling-stroke" fill="none" stroke="#f1f5f9"/>
        </g>
      </g>
    </g>
  </g>
</svg>
